<?xml version="1.0" encoding="UTF-8"?>
<svg version="1.1" viewBox="0 0 2048 2048" width="1280" height="1280" xmlns="http://www.w3.org/2000/svg">
<path transform="translate(1201,237)" d="m0 0h19l48 1 3 1 29 1 21 3 13 5 15 2 15 5 13 1 14 6 10 4 14 4 15 7 15 6 17 6 17 9 10 5 10 7 14 7 14 8 8 5 16 8 8 5 7 2 21 1 21 3 11 3 13 2 13 4 9 4 15 9 8 6 8 5 5 2h23l9-3 6-7 6-11 7-8 9-4h14l4 2v6l-5 9h-2l-2 4-3 3h-2l-2 5v3l2 1h18l39-1 15-2 10-7 3-1 2-4 7-10 9-10 8-10 3-3 3-5 8-8 10-8 16-15 9-8 11-9 5-3 7-4 7-2h11l7 3 4 9 1 3v14l-5 14-8 16-9 13-7 9-7 10-13 17-9 9-9 11-7 7-2 4h-2l-2 5-1 3v7l5 17 1 13 3 18 1 1 1 15 6-2 12-15 7-1 5 3 3 3v11l-8 10-5 5-5 6h-2l-2 5-1 3v9l2 7 2 19 3 9 1 10 1 2 1 22 9-2v-2l5-5 5-3h6l6 4 1 7-3 7-12 14-3 3-2 5 2 22 6 20 3 14 4 16 1 7 3 7 3 15 4 10 2 9 2 14 3 11-4 10-3 4h-2v2l-7 6h-14l-4-5-4-6-4-13-3-5v-2h-2l-5-9-3-10-8-16-10-21-4-5-8-18-16-32-8-17-3-7-4-8-3-8-9-17-6-10-3-7-11-21-6-16-7-14-2-2h-9l-4 2-2 4-15 15-9 11-10 9-11 9-2 3v12l5 12 8 22 3 7 7 21 3 6 2 9 3 9 2 10 1 11 4 12 3 19 4 11 1 29 2 16 3 10v109l-3 12-2 17-1 31-4 16-1 12-4 18-2 7-1 11-3 12-3 14-1 8-4 7-1 2-2 16-2 10-6 13-4 12-2 8-3 8-4 16-6 16-4 10-5 14-3 8-5 13-3 10-5 13-7 14-4 7-10 21-3 5-4 10-7 16-9 16-7 12-17 26-3 5-8 13-7 10-6 11-9 13h-2l-2 4-7 11h-2l-2 4-8 13-9 13h-2v2h-2l-2 4-6 9-7 6-10 14-6 8-12 13-1 2h-2v2l-3 3h-2v2h-2l-2 4-29 29-3 5h-2v2l-8 7-6 7-9 6-10 10-10 8-10 9-6 4-9 8-10 7-8 6-3 1v2l-11 8-8 6-10 6-8 7-11 6-12 7-3 3h-2v2l-14 8-15 10-16 8-19 9-16 8-15 8-16 6-9 4-15 5-14 6-13 5-9 4-15 4-14 4-8 3-22 7-16 3-17 5-4 1-15 1-8 3-20 3-12 2-8 2-29 1-10 4-10 2h-138l-18-4-11-2-11-1-25-8-8-2-12-1-17-6-7-2-7-4-8-5-10-4-12-5-12-6-20-11-10-8-14-10v-2l-5-2-5-4-11-6-10-9-14-11-5-6-7-6-5-5-10-9-8-7-10-10-9-12-10-14-5-5v-2h-2l-14-21-8-7h-7l-11 5-11 4-10 6-17 7-13 6-13 5-17 7-8 4-18 7-15 8-13 5-8 3-10 6-16 6-13 4-15 8-8 3-20 8-9 3-9 5-7 3h-10l1-4 9-9 10-7 10-8 7-5h2l2-5 7-13 8-15 3-7 6-10 3-7 2-13 5-24 1-9 3-7 2-9 1-25 2-13 4-8 5-4 8-4 20-7 13-3 24-10 13-4 13-5 13-3 6-2 1-10-2-12-3-10-1-11-6-24-3-19-3-7-1-6-1-32-3-13-2-5v-76l3-9 2-18 1-22 3-7 5-25 3-9 2-9 1-14 5-27 5-9 7-21 4-10 7-18 3-5 3-9 6-10 9-17 3-7 9-16 6-10 9-11 6-9 3-5h2l2-4 8-10 6-9 8-10 7-8 7-7 7-8 11-13 10-11 11-9 8-8 13-10 10-10h2v-2l9-7 11-8 19-13 14-8 20-14 17-7 17-6 12-4 16-8 19-7 13-5 9-3 36-11 15-4 7-3 16-4 7-3 12-3 5-2 16-3 18-6 7-2 15-4 14-2 22-6 26-7 1-1 27-5 9-3 12-3 11-3 17-3 16-5 17-5 15-3 20-6 15-5 7-1 7-3 18-6 17-8 12-3 17-8 10-3 10-5 6-12 9-11 5-5 7-9 10-14 11-12 9-10 10-13 8-9 7-8 7-7 8-11h2l2-4 14-14 7-6h2v-2l6-5 5-5 13-11 9-9 20-14 15-10 10-8 15-9 9-5 18-8 6-4 11-6 2-2v-5l-5-3-9-4-15-9-12-6-5-3-7-3-10-6-14-5-13-3-10-5-11-3-16-6-16-5-11-1-13-6-20-2-16-2-58-1h-32l-65 1-15 3-30 1-11 4-21 5-11 4-26 7-10 4-16 5-30 12-12 5-17 7-10 5-16 6-14 7-10 4-16 7-17 10-7 4-4 2v2l-12 7-9 7-7 3-14 10-15 10-10 9-12 8-8 7-11 9-7 7-9 6-14 12-6 7-5 5-7 6-1 2h-2l-2 4-7 6h-2v2h-2l-2 4-12 12-5 6-8 7-7 8-5 6-4 4-7 8-3 3h-2l-2 4-3 1-2 4-4 6-6 7-4 6-8 9-4 7-5 6-6 11h-2l-2 4-6 8-7 11-9 13-6 11-9 16-6 9-9 14-3 8-6 12-5 13-8 16-5 11v15l11 24 1 3v25l-4 11-6 10-9 7h-3v2l-10 5-5 1-13-1-8-3-5-5-5-11-1-4v-14l6-24 6-15 6-12 5-11 4-11 8-12 4-9 3-10 8-16 9-17 7-11 9-16 5-8 5-11 7-11 7-9 5-9 8-11 15-21h2l2-5 9-13 7-6 8-11 4-4h2l2-4 7-9 3-5h2v-2h2l2-4 8-7 6-4 9-10 8-11 9-10 8-8 11-8 12-12 11-9 10-9h2v-2l10-7 6-4 3-1v-2h2v-2h2v-2l14-10h2l2-4 15-10 11-9 12-8 10-7 10-6 12-9 8-5 5-2 9-7 12-6 18-12 8-3 10-6 16-8 12-5 16-8 14-5 10-4 12-6 16-4 16-5 13-5 13-4 18-3 15-6 7-1 8-3 14-3 12-1 11-3 4-2 16-3 14-1 2-1zm343 165-13 3-12 2-13 4-8 3-9 5-5 3-12 7-12 6-3 1v2l-4 1-11 8-6 4-16 15-4 3v2l-4 2-14 11-11 12-10 13v3h-2l-11 14-10 11-2 3v9l2 2 18 2h11l12-3 12-5 7-1 7-3 22-6 11-5 13-4 12-5 21-10 10-3 8-4 10-6 10-4 19-11 22-13 20-12 9-6v-2l4-2 4-5 2-5h2l7-12 2-4-1-6-11-3-8-1-10-4-12-4-8-2zm134 67-1 1 1 7 4 4 7 14 4 10 6 8 8 15 7 11h3l1-2 1-13 4-7v-2l5-2 6-5 6-8 8-7 1-6-5-3-17-6-18-1-16-4-12-4zm-42 12-3 2v2l-4 1-11 6-11 8-16 8-12 8-19 9-30 15-9 4v2l-9 2-12 4-8 4-17 6-12 5-15 7-17 6-13 5-20 6-9 3-10 3-11 4-34 8-1 1-20 3-12 5-9 7-4 4v2h-2l-8 11-7 10-4 6-5 8-16 24-6 8v3h-2l-7 11-6 11-6 9-6 11-7 11-6 12-9 17-8 16-9 16-5 14-5 19 1 5h14l19-3 10-3 7-1 8-3 16-5 11-5 15-5 13-6 12-6 19-11 15-8 3-1v-2l4-2 7-6 11-8 9-8 12-8 13-12 4-4v-2h2v-2h2l7-8 8-7 4-2 8-2h8l12 3 5 4 2 4v12l-5 8-6 6v2l-4 1-7 6v2h-2l-7 8-8 7-17 13-5 4v2l-4 2-8 7v2h-2v2l-4 1-7 5-11 6-7 5-14 7-5 4-12 6-5 4-7 4-8 5-9 4-19 8-11 5-13 4-5 3-14 4-11 5-8 2-16 2-14 5-19 5-10 2-10 1-18 7-3 3-5 12-3 13-4 8-5 13-7 14-6 7-6 14-3 5-4 10-8 15-8 16-10 16-4 9-8 14-8 12-6 11-9 15-8 12-5 8-9 12-4 7-7 9-7 11-7 7-3 4v2h-2l-10 14-9 12-10 10-8 10-9 10-8 10-16 17-3 3v2h-2v2h-2l-5 5v2h-2l-3 4v2l-4 2-12 12-11 12-14 12-8 7-15 15-10 9-8 7-9 7-11 9-12 11-2 1v2l-5 2-10 7-9 8-6 4v2l-5 2-9 7v2l-5 2-5 4-7 4-9 7-9 5-15 11-13 10-10 6-11 6-8 5-13 8-8 4-10 6-7 4-11 10v7l7 10 8 7 6 8 2 3h2v2h2v2l5 5 7 8 7 6 4 6 11 9 3 4h2l2 4 10 8 7 8 17 16 14 9 8 6 21 11 13 8 14 7 24 10 15 8 19 7 10 2 14 5 21 6 13 2 13 5h118l28-6 15-3 17-5 12-5 28-8 16-5 8-3 11-5 19-7 9-6 13-5 12-4 15-7 16-7 11-10 14-8 9-6 12-6 15-11 18-12 16-12 11-9 4-3v-2l5-2 13-8 7-8 8-7 5-4 17-17 4-5 8-7 11-9 8-8 3-4v-2h2l11-14 10-11 10-13 11-13 10-15 6-10 9-13 5-9 9-12 4-6 5-9 12-20 4-8 6-10 13-26 8-15 8-20 7-15 4-13 3-8 6-18 6-15 2-9 3-6 6-20 2-12 5-16 2-12 3-6 2-11 1-24 4-14 1-35 1-14 1-28v-38l-1-20-1-4v-15l2-8 10-6 15-6 17-12 12-7 8-7 14-9 9-7 11-7 10-8 5-5 2-4 2-11 5-11 1-17 3-15 1-2 2-13v-84l-5-15-1-4-1-20-4-10-2-6-3-14-7-10-3-3h-2l-3 11-7 9-6 4-2 4v12l3 12 2 16 2 11 3 5 2 7 2 16 3 14v12l-3 12-4 10-3 3h-4l-8-15-10-15-6-12-5-7-8-17-8-13-4-7-5-6-4-2-12-2-11-1-13-4-45-3-11-3-19-2-1-4 2-8 7-14 6-4 15-3 19-2 42-1 13-3 15-2 9-3 11-8 10-12 6-10 1-3 4-2 7-5 2-4-1-6-3-7-7-13-12-16-10-17-3-8-12-13zm-474 189-11 2-24 10-8 2-13 5-30 9-6 2-15 3-10 3-7 3-12 3-11 4-9 2-19 5-14 4-16 3-12 4-12 2-21 6-15 5-14 2-11 5-14 4-30 8-11 3-5 3-15 4-7 3-13 3-21 8-17 4-10 4-16 8-15 7-8 3-14 8-8 4-9 8-20 14v2l-4 2-10 9-11 12-5 7-8 7-5 5-11 12-8 11-4 4-9 11-1 3h-2l-6 10-8 11v2h-2l-6 8-4 6-9 11-8 15-8 16-8 14-4 8-4 7-6 13-5 16-3 12-4 9-2 6-3 15-2 5-3 9-3 12-1 20-4 18-2 18v63l2 16 3 14 2 19 5 12 2 18 5 16 7 15 5 18 3 12 2 6 2 9 2 4 2 1 11-1 10-5 10-6 10-3 30-15 7-3 11-8 11-6 10-5 9-6 12-6 20-12 12-9 11-8 2-1v-2l4-2 12-8 15-12 11-8 11-10 11-9 17-17 11-6 6-5 9-11 11-12 7-5 7-8 11-11 5-6 9-7 10-13 4-5v-2h2l10-13 13-13 7-9 6-7 7-10 8-10 4-6v-2h2l10-13v-3h2l7-10 12-14 4-5 8-14 7-10 6-8 11-14 9-14 2-3v-7l-3-3-9 4-10 3-10 4-13 5-15 8-8 3-10 6-16 8-6 4-24 18-9 7v2l-6 2-10 6-7 7-9 5-9 9-7 5v2l-5 2-10 6-1 3-4 2-10 9-9 6-11 6-5 4-11 6-5 2-9 2-11 3h-12l-16-2-10-5-4-5-3-9 1-7 1-4h2l7-10 2-6h2l5-5 5-4v-2h2v-2l5-2 8-6 4-5 14-11 10-8v-2l5-2 10-8 10-7 9-5 15-11 7-4 14-9 12-6 9-6 16-8 10-6 14-6 10-4 30-15 13-6 10-3 13-6 26-11 16-6 11-5 22-6 24-11 7-8 6-11 7-13 10-13 7-12 4-8 11-16 5-9 7-9 9-19 5-6v-2h2l5-8 3-5 10-14 7-12 12-18 4-8 10-14 6-10-1-5-1-1z" fill="#D03F93"/>
<path transform="translate(1944,274)" d="m0 0h11l7 3 4 9 1 3v14l-5 14-8 16-9 13-7 9-7 10-13 17-9 9-9 11-7 7-2 4h-2l-2 5-1 3v7l5 17 1 13 3 18 1 1 1 15 6-2 12-15 7-1 5 3 3 3v11l-8 10-5 5-5 6h-2l-2 5-1 3v9l2 7 2 19 3 9 1 10 1 2 1 22 9-2v-2l5-5 5-3h6l6 4 1 7-3 7-12 14-3 3-2 5 2 22 6 20 3 14 4 16 1 7 3 7 3 15 4 10 2 9 2 14 3 11-4 10-3 4h-2v2l-7 6h-14l-4-5-4-6-4-13-3-5v-2h-2l-5-9-3-10-8-16-10-21-4-5-8-18-16-32-8-17-3-7-4-8-3-8-9-17-6-10-3-7-11-21-6-16-7-14-2-2h-9l-4 2-2 4-15 15-9 11-10 9-11 9-2 3-1 5h-4l-1-13-4-1-2-4-1-7-5-1-2-19 1-13 5-9 10-7 6-8 8-7 1-6-6-3-10-3-5-2-18-1-16-4-12-4-2-2-6-1v-12l1-7h6v-7l1-5 5-1 1-6 4-1 1-9v-29h-5v-6h26l9-3 6-7 6-11 7-8 9-4h14l4 2v6l-5 9h-2l-2 4-3 3h-2l-2 5v3l2 1h18l39-1 15-2 10-7 3-1 2-4 7-10 9-10 8-10 3-3 3-5 8-8 10-8 16-15 9-8 11-9 5-3 7-4z" fill="#51B7DB"/>
<path transform="translate(1687,562)" d="m0 0 6 2v12h6l1 13h5l1 12h-2l-2 11-8 10-4 3h-2l-1 4v12l3 12 2 16 2 11 3 5 2 7 2 16 3 14v12l-3 12-4 10-4 4-5-1-8-15-10-15-6-12-5-7-8-17-8-13-4-7-4-5-4-2-12-2-11-1-13-4-45-3-11-3-19-2-2-5 2-8 8-15 6-4 15-3 19-2 42-1 13-3 15-2 9-3 11-8 9-11 6-10 5-5 7-5z" fill="#52B7DB"/>
<path transform="translate(1548,397)" d="m0 0h41l2 1 1 4 17 2 1 4 12 1 1 4 5 1v1h-9l-10-2-10-4-12-4-8-2h-35l-13 3-12 2-13 4-8 3-9 5-5 3-12 7-10 5h-5l5-5 4-2 8-2 1-4 6-1 1-5 6-1 2-5 15-2h2v-4l2-1 27-1 9-3z" fill="#BD4B8F"/>
<path transform="translate(1667,372)" d="m0 0 6 4 10 4 4 4v6h5l1 6v26l-2 7h-4v6l-1 1h-5l-1 12h-6l-1 19h6l1 2-2 1 1 7 1 3h-5l-3-7-4-2-2-11 1-12 5-2 2-11 5-1 1-6 4-2 2-4v-31h-5l-2-7-5-1v-5l-7-1z" fill="#B74C8C"/>
<path transform="translate(232,1666)" d="m0 0 1 4v13l-11 1-1 5 12-1 1-4 1-1h5v7l-16 6-9 3-9 5-7 3h-10l1-4 9-9 10-7 10-8 7-5h2l2-5z" fill="#C05A97"/>
<path transform="translate(893,1267)" d="m0 0h6l-2 4-11 12-3 4h-2v2h-2v2h-2l-2 4-3 1v2h-2l-2 4-17 17-9 10-10 9-11 9-13 13h-2l-2 4-11 10h-3l1-5 4-1 2-5 5-1 1-5 6-2 2-5 4-1 2-4 4-2 2-5 5-1 1-5 5-1 2-6 5-1 1-5 6-1v-5l5-1 2-6 5-1 1-5 6-2 1-5h6v-6l5-2 2-5h5v-6l1-1h5v-5z" fill="#BE5393"/>
<path transform="translate(374,1229)" d="m0 0h1v102h-1v-13h-2l-4-8v-59l2-4 4-1z" fill="#B64D8C"/>
<path transform="translate(1782,781)" d="m0 0h1l1 18 4 1v84l-1 6h-4v27h-1z" fill="#B64D8C"/>
<path transform="translate(460,966)" d="m0 0h4v6l-4 3h-2l-1 10-3 2-4 10-4 1-2 6-5 1-1 19-6 1-2 5-3 1-2 5-5 1 1-4 3-6 7-12 6-12 3-7 9-16 6-10z" fill="#C25997"/>
<path transform="translate(1687,550)" d="m0 0h5l2 6 5 1 1 12 2 4 4 3 1 12 5 1 1 12h5l1 2v11l-5-1-6-9-2-2-1-13h-5l-1-13h-6l-1-12-4-2-1-4z" fill="#B74D8C"/>
<path transform="translate(1699,518)" d="m0 0 5 2 6 11 4 7h4l1 6v12h5l1 1 2 10 4 2 1 13h4l1 11-2-1v-3h-4v-7h-6l-1-12-5-1-2-17-5-2-2-11-4-2-2-7-2-4h-2z" fill="#B64C8C"/>
<path transform="translate(1548,397)" d="m0 0h41l2 1 1 4 17 2 1 4 12 1 1 4 5 1v1h-9l-10-2-10-4-12-4-8-2-1-1-34-1z" fill="#B84D8D"/>
<path transform="translate(1628,422)" d="m0 0h2l-1 13-5 1-2 12-5 1-1 5-6 2-1 4-5 1h-7v5l-9 3v3l-13 2 5-6 18-10 8-6h2v-2l6-5 4-7h2l2-5z" fill="#B85090"/>
<path transform="translate(1437,730)" d="m0 0h7l2 4v12l-5 8-7 8-5 3-5 4-1 2h-2l-2 4-7 6h-7v-1h6v-6l3-5 10-2v-5l7-1v-6l5-1 1-11 2-6-2-3z" fill="#B74C8C"/>
<path transform="translate(456,1181)" d="m0 0h1v72l-1 17h-1v-28l-3-1-1-6v-38l2-7h2z" fill="#B84B8C"/>
<path transform="translate(1733,691)" d="m0 0 5 1v56l-5 1z" fill="#B64D8C"/>
<path transform="translate(1238,269)" d="m0 0h45v6h-45z" fill="#D03E92"/>
<path transform="translate(1604,953)" d="m0 0 5 1v60h-4l-1 4z" fill="#FEFEFE"/>
<path transform="translate(440,998)" d="m0 0h5l-1 6-5 1-1 19-6 1-2 5-3 1-2 5-5 1 1-4 3-6 7-12 6-12 1-4z" fill="#BA4A8D"/>
<path transform="translate(1623,358)" d="m0 0h22l9 4 5 3 2 3v3h-14l-4-2-1-3-8-2-4-4-7-1z" fill="#B94E8E"/>
<path transform="translate(1212,269)" d="m0 0h26v6h58l12 2v1l-13-1-58-1-30-1 3-1z" fill="#FEFEFE"/>
<path transform="translate(988,909)" d="m0 0 2 1-1 6h-7v5l-12 2-1 4-18 1v-2l5-1v-3l21-8z" fill="#B94A8C"/>
<path transform="translate(368,1261)" d="m0 0h6v37l-4-1-1 3h-1z" fill="#D13E93"/>
<path transform="translate(1373,1530)" d="m0 0h6v5l-6 2-2 5-5 1-1-6zm-9 8m-1 1m-1 1m-1 1m-1 1h1v7l-2 6-5 1-1 3-5 3h-6v-1h5v-7l5-5z" fill="#D14997"/>
<path transform="translate(834,1331)" d="m0 0h5l-5 5-14 12-12 12h-2l-2 4-11 10h-3l1-5 4-1 2-5 5-1 1-5 6-2 2-5 4-1 2-4 4-2 2-5 5-1 1-5z" fill="#BD498D"/>
<path transform="translate(1286,243)" d="m0 0h30l5 2v4h10v1h-16l-20-1-6-2v-2l-3-1z" fill="#B64D8C"/>
<path transform="translate(452,819)" d="m0 0h5l-4 1v6h4l-1 5-3 1v20l3 1 1 4v7h-6l-3-6-1-14 1-5h3v-13z" fill="#BA5491"/>
<path transform="translate(669,1126)" d="m0 0h6l1 6 47 1-2 2-11 3h-12l-16-2-10-5-3-3z" fill="#DC6DAD"/>
<path transform="translate(1041,1057)" d="m0 0h5l-1 7-5 8-3 7-5 9h-5v-6h6l1-19 5-1z" fill="#BD4A8E"/>
<path transform="translate(1699,518)" d="m0 0 5 2 6 11 4 7h4l1 6v9l-7-3-2-11-4-2-2-7-2-4h-2z" fill="#B94B8C"/>
<path transform="translate(731,1044)" d="m0 0 2 1-11 10-1 2 4 1-6 5h-5v5l-6 2-1 5h-12l5-4 7-6 5-5 13-11z" fill="#C05896"/>
<path transform="translate(1203,263)" d="m0 0 6 1 3 2h13l2-1 6 2 50 1v1h-108v-1l25-1 1-3z" fill="#B64D8C"/>
<path transform="translate(1603,1072)" d="m0 0h1v23l-1 23-5 2h-1v-26h6z" fill="#B84B8C"/>
<path transform="translate(931,730)" d="m0 0h13l-1 4-28 8h-6l3-6 11-1 5-2z" fill="#BF5192"/>
<path transform="translate(1291,1696)" d="m0 0h6l-2 7-22 11-8 1v-6l12-2 6-4 6-2z" fill="#C25796"/>
<path transform="translate(1431,755)" d="m0 0h8l-5 7-5 3-5 4-1 2h-2l-2 4-7 6h-7v-1h6v-6l3-5 10-2v-5l7-1z" fill="#BC4B8E"/>
<path transform="translate(1624,1370)" d="m0 0h4v6l-7 11-5 8h-6l1-5 5-1v-7l1-5 5-1z" fill="#C35395"/>
<path transform="translate(938,301)" d="m0 0 3 1-2 1-1 5h-7v5l-12 2-1 4h-6v-6l5-3 14-5z" fill="#BE5493"/>
<path transform="translate(387,1149)" d="m0 0h1l-1 28-1 4-5 2v-19l4-9z" fill="#B84B8C"/>
<path transform="translate(1411,582)" d="m0 0h7l-1 3-6 3-13 4-9 3h-6l3-1 1-5 11-1 6-5z" fill="#BF5092"/>
<path transform="translate(593,602)" d="m0 0h5v7l-6 7-6 11-6 1-1 3 1-9 5-1v-6l1-1h5z" fill="#C45496"/>
<path transform="translate(1481,366)" d="m0 0h1v5h-7v5l-1 1h-11l-1 6h-6l1-7 11-5z" fill="#C25596"/>
<path transform="translate(716,1292)" d="m0 0 3 1v6l-10 2-2 5h-6v6l-8 2-5 3 2-5 15-12z" fill="#C14B91"/>
<path transform="translate(381,1382)" d="m0 0 6 2 1 19v12h-1v-7h-2l-3-7-1-1z" fill="#B64C8C"/>
<path transform="translate(611,548)" d="m0 0 2 1-2 7-5 1-2 12-5 1-2 6h-5v-5l10-13 3-3h2l2-4z" fill="#C75698"/>
<path transform="translate(952,320)" d="m0 0h11v4l-8 4-9 4h-8l2-5 10-1z" fill="#B64D8C"/>
<path transform="translate(1387,794)" d="m0 0h5l-1 4-5 5h-2v2l-8 7-4 4h-2v2h-4v-5h6l1-7h6v-6l7-1z" fill="#C05293"/>
<path transform="translate(1205,752)" d="m0 0h1v5l-6 10-7 14-5-1v-5l4-1 2-11 4 2 2-10h5z" fill="#BD4F91"/>
<path transform="translate(394,1101)" d="m0 0h6v13l-1 6-4 1-1 6h-1v-25z" fill="#B74C8C"/>
<path transform="translate(976,1799)" d="m0 0h38v1l-12 2-8 2h-19z" fill="#D34798"/>
<path transform="translate(1078,692)" d="m0 0h7l-1 4-8 3-6 2-9 2h-9l2-5 19-2z" fill="#C45596"/>
<path transform="translate(1143,240)" d="m0 0h13l-1 2-19 1v6h-24l3-2 8-2 4-2z" fill="#E79EC8"/>
<path transform="translate(1423,1607)" d="m0 0h1v5l-14 12-12 6 1-5 4-2 2-4 6-1 1-5h6l1-5z" fill="#B94B8C"/>
<path transform="translate(1106,787)" d="m0 0 4 1v5l-6 1v6l-5 1-2 11-6 1 1-7 4-6 7-10z" fill="#C14A90"/>
<path transform="translate(1489,551)" d="m0 0h6l-1 5-15 6-10 1v-6l12-1 1-1h5v-3z" fill="#B84B8C"/>
<path transform="translate(843,973)" d="m0 0h6l-1 6h-6l-1 6-12 1v-5z" fill="#B74B8C"/>
<path transform="translate(1955,743)" d="m0 0 2 3 2 14 3 11-4 10-3 4h-2v2l-7 6h-3v-5l7-2 4-3 2-9 3-1v-5l-2-5-2-1z" fill="#FEFEFE"/>
<path transform="translate(1305,1588)" d="m0 0h4v6l-4 1-2 4-1 1h-6v6l-4 1-2-1v-5l5-3 6-7z" fill="#BD5292"/>
<path transform="translate(1634,898)" d="m0 0 2 1-1 3-6 2-1 4h-6v2h-5v5h-13l4-4 14-7 8-3z" fill="#DA77B0"/>
<path transform="translate(1769,698)" d="m0 0h1v6l4 1 2 11v13l-1-3-4-1-1-1-1-14z" fill="#B94B8C"/>
<path transform="translate(566,1696)" d="m0 0 6 2 1 4 6 1v6h5l1 1v5l-5-1-11-9-3-4z" fill="#C05092"/>
<path transform="translate(915,691)" d="m0 0h23v1l-7 1-2 4-11 1h-6v-6z" fill="#BA4F8F"/>
<path transform="translate(1073,256)" d="m0 0h19l-2 6-12 1h-16v-1h11z" fill="#B74C8C"/>
<path transform="translate(1014,1792)" d="m0 0h7v5l-1 1-12 1h-32v-1l26-1 4-4z" fill="#B64D8C"/>
<path transform="translate(1094,275)" d="m0 0h23v4l-22 2h-7l3-1v-4z" fill="#B64C8C"/>
<path transform="translate(1117,249)" d="m0 0h19v1l-13 1-2 4-17 1v-6h12z" fill="#B64D8C"/>
<path transform="translate(1136,243)" d="m0 0h21l-2 6h-19z" fill="#B64D8C"/>
<path transform="translate(771,1799)" d="m0 0h18l4 4 4 2h-19l-7-2z" fill="#B74C8C"/>
<path transform="translate(536,870)" d="m0 0h5v6l-6 1-1 6-5 1-1 6h-6v-3l8-10z" fill="#C25495"/>
<path transform="translate(1710,1213)" d="m0 0h1l-1 7-3 7-3 9-4 9h-1v-16h5l1-13h5z" fill="#B64D8C"/>
<path transform="translate(1386,551)" d="m0 0h9l-4 2-5 4h-19l-1-3h-10l-2-2h29z" fill="#BA4A8D"/>
<path transform="translate(849,1312)" d="m0 0h8l-6 7-9 10-2 2h-5v-5l6-2 1-5 6-1v-5z" fill="#BD5392"/>
<path transform="translate(669,1107)" d="m0 0h6v7l-1 5 1 1v6h-6l-1-2v-10z" fill="#B64C8C"/>
<path transform="translate(1290,858)" d="m0 0h7l-1 5-9 5-6 2h-5l2-6 6-2z" fill="#BB4D8F"/>
<path transform="translate(1775,978)" d="m0 0h1v11l-2 9h-4v18h-1v-19l1-17z" fill="#B64D8C"/>
<path transform="translate(631,557)" d="m0 0h5v5l-4 4h-2l-2 4-3 1-2 4-1 1h-5l1-6 6-1v-5l5-1z" fill="#C15494"/>
<path transform="translate(680,1658)" d="m0 0 4 1 10 6 13 7v4l-6-1 1-3-13-2-2-5-5-1v-5z" fill="#BB4A8D"/>
<path transform="translate(316,1651)" d="m0 0 2 1-2 5-10 4-5 3h-9v-5l5-1 13-2 3-4z" fill="#B74C8C"/>
<path transform="translate(899,320)" d="m0 0h7l-1 6-12 1v6h-7l1-7z" fill="#B94B8C"/>
<path transform="translate(1478,301)" d="m0 0h8l10 7 3 5h-10l-1-1v-5h-7l-1-4h-2z" fill="#C25595"/>
<path transform="translate(1787,884)" d="m0 0h1v18l-3 12-1 10h-1v-34h4z" fill="#D657A1"/>
<path transform="translate(746,420)" d="m0 0 2 1-1 1-1 7-6 1-2 5-5 1-2 5h-5v-5l9-6 3-1v-2h2v-2h2v-2z" fill="#C25A98"/>
<path transform="translate(271,1568)" d="m0 0h1v12l-2 7h-4v9h-1v-15l1-9 2-3z" fill="#B64C8C"/>
<path transform="translate(759,435)" d="m0 0h5l-1 5-8 6-9 8-3-1h2v-5l2-5 10-3z" fill="#BC4B8E"/>
<path transform="translate(1041,1786)" d="m0 0h18l1 4-7 2h-14z" fill="#B64D8C"/>
<path transform="translate(213,1684)" d="m0 0h1v5l-6 1-1 6-8 2-3 1-1 6h5l-1 2h-10l1-4 9-9 10-7z" fill="#FEFEFE"/>
<path transform="translate(681,1318)" d="m0 0h7l-1 5-1-2-4 4-6 1-1 5-7 2-3 3h-2l-1 2 1-5 6-4 3-4h2v-2z" fill="#BF4A8F"/>
<path transform="translate(1602,1041)" d="m0 0h1v53h-6l1-7 3-11z" fill="#E697C5"/>
<path transform="translate(1610,972)" d="m0 0 4 5 1 2v13l-3 6-1 8h-1z" fill="#B64D8C"/>
<path transform="translate(1103,940)" d="m0 0h1l-1 10-4 8-2 5-2 3h-3l-1-4 1-3 3-1 2-5 1-10 2-2z" fill="#C05193"/>
<path transform="translate(868,704)" d="m0 0h11v1h-5v5l-6 1h-13l-5-1 4-2 5-2z" fill="#B84B8C"/>
<path transform="translate(765,1389)" d="m0 0h6l-1 4-10 9-7 6h-5l-1-3 4-1 1-3h6v-5l6-2z" fill="#BF5494"/>
<path transform="translate(1533,333)" d="m0 0h9l4 2v4l6 1v5h-5l-1-5-13-1z" fill="#BB498D"/>
<path transform="translate(1411,270)" d="m0 0 6 1 16 7 5 2v1h-20l-1-8-5-1z" fill="#C15394"/>
<path transform="translate(514 1e3)" d="m0 0h1v5l-8 13-2 4h-3l1-12 6-1v-6l5-1z" fill="#BF5694"/>
<path transform="translate(1890,314)" d="m0 0h1v6h-6v6l-6 1-1 5-5 1-1 6h-6l5-8 8-8 10-8z" fill="#FEFEFE"/>
<path transform="translate(733,1043)" d="m0 0h7l-1 6-5 1-2 6h-11l5-6 6-5z" fill="#B64D8C"/>
<path transform="translate(564,845)" d="m0 0h3v5l-6 2-1 6-6 1-1 5h-6l2-4 7-8z" fill="#BD5694"/>
<path transform="translate(792,386)" d="m0 0m-2 1 2 1-2 3-5 3-2 8-1 1-11 1-1 2h-2v2l-6 1 4-4 13-9 7-6z" fill="#C34D93"/>
<path transform="translate(630,1614)" d="m0 0 5 3 10 8 7 8 3 3v3l-5-1-1-6h-5l-2-5-5-1-1-5-6-2z" fill="#BD4C8F"/>
<path transform="translate(708,800)" d="m0 0h11l-2 5-15 7h-5l3-2 1-4 5-1z" fill="#BD4D8F"/>
<path transform="translate(970,678)" d="m0 0h19v1l-7 1-2 3-5 2h-12l1-4 6-1z" fill="#B74C8C"/>
<path transform="translate(1085,1779)" d="m0 0h6v4l-4 1-1 2h-27v-1l14-1 4-4z" fill="#B84B8C"/>
<path transform="translate(496,1030)" d="m0 0h5l-1 4-5 9-3 7h-3v-13h6v-6z" fill="#BA4A8D"/>
<path transform="translate(958,1799)" d="m0 0h18l-1 5-22 1 4-1z" fill="#B64D8C"/>
<path transform="translate(534,1404)" d="m0 0 4 1h-3v4h-7v6l-7 1-2 4h-3l-1-4 5-5z" fill="#C45496"/>
<path transform="translate(1072,842)" d="m0 0 1 3-1 6h-5l-1 12-1 1h-6l1-8 8-10 2-2z" fill="#B94B8C"/>
<path transform="translate(674,1096)" d="m0 0h1v11h-6v19l-2-1-3-9 1-7 2-4h2l2-4z" fill="#E288BC"/>
<path transform="translate(1690,1254)" d="m0 0h2v6l-7 13-5 1 1-8 5-5 1-6z" fill="#C55195"/>
<path transform="translate(431,1015)" d="m0 0h1v10l-2 5-3 1-2 5-5 1 1-4 3-6z" fill="#B84B8C"/>
<path transform="translate(624,1745)" d="m0 0 13 2 6 1 1 9-6-2-12-7z" fill="#C6619D"/>
<path transform="translate(834,1331)" d="m0 0h5l-5 5-14 12-5 4 1-5 1-2 4-2 2-5 5-1 1-5z" fill="#BE4C8F"/>
<path transform="translate(943,928)" d="m0 0 3 1-3 1v4l-9 1-2 5-6 1-2-1 1-4 10-5z" fill="#BE4F91"/>
<path transform="translate(735,1690)" d="m0 0h6l12 5 5 4-1 4-5-1-2-4-11-2-1-4z" fill="#C65999"/>
<path transform="translate(295,1499)" d="m0 0h3v5l-13 1v6h-8l-1 5-2 1 1-5 5-6 10-5z" fill="#E080B7"/>
<path transform="translate(373,1215)" d="m0 0h1v31l-4 2-2 3v-9l3-9z" fill="#DB6AAC"/>
<path transform="translate(278,1511)" d="m0 0h7v11l-3 2h-3v6h-1z" fill="#B64D8C"/>
<path transform="translate(938,1216)" d="m0 0h4l-1 5-11 12-2 2-3-1 1-5 4-1 2-6h5v-5z" fill="#BC4B8E"/>
<path transform="translate(510,813)" d="m0 0h3l2 6v21l-3 5-3-1 2-5-2-1v-6h5l-2-16h-2z" fill="#B94B8C"/>
<path transform="translate(1239,1722)" d="m0 0h6l-1 6-11 6h-6l2-5 9-1v-5z" fill="#C35094"/>
<path transform="translate(603,812)" d="m0 0 2 1-4 5 3 2h-5l-1 6h-11l5-5 8-7z" fill="#C9629F"/>
<path transform="translate(1561,615)" d="m0 0h7v1l-9 1v3l-26 1 1-2 15-3z" fill="#FEFEFE"/>
<path transform="translate(1373,1530)" d="m0 0h6v5l-6 2-2 5-5 1v-7z" fill="#BE488E"/>
<path transform="translate(1604,915)" d="m0 0h12v1h-6v18h-1v-6h-5z" fill="#B64C8C"/>
<path transform="translate(533,703)" d="m0 0 1 4-4 6-3 8-5 3h-1v-6l5-2 2-12z" fill="#C25495"/>
<path transform="translate(277,1511)" d="m0 0h1v19h-6v-10l1-3 3-3z" fill="#D24496"/>
<path transform="translate(379,1354)" d="m0 0h1l1 8v14h-1v-6l-4-1-1-1v-11l1-2z" fill="#B64D8C"/>
<path transform="translate(861,1150)" d="m0 0v3l-1 5h-5l-1 7-5 2-1 4-4-1 2-2 2-5 9-11z" fill="#BD5191"/>
<path transform="translate(409,1068)" d="m0 0h4v8l-1 5-4 1-1 6h-1v-13l1-6z" fill="#B64D8C"/>
<path transform="translate(874,748)" d="m0 0h6l-2 2-3 1-1 3-2 1h-11v-5l2-1z" fill="#B74C8C"/>
<path transform="translate(1157,704)" d="m0 0h4l-2 5-3 1-1 12-5 1-1-1 1-7 5-7z" fill="#B74C8C"/>
<path transform="translate(1104,684)" d="m0 0h12v2l-10 4-10 1 2-6z" fill="#BF5695"/>
<path transform="translate(464,1318)" d="m0 0 3 1 2 4v14l-5-1z" fill="#B64D8C"/>
<path transform="translate(1059,1786)" d="m0 0h19l-2 2-19 5h-11v-1l14-2z" fill="#DE75B1"/>
<path transform="translate(1294,813)" d="m0 0h7v1h-5v5h-6l-1 6h-6v-5h2l1-3z" fill="#C45295"/>
<path transform="translate(1726,648)" d="m0 0 4 1 1 3v14l-5-1z" fill="#B64D8C"/>
<path transform="translate(552,623)" d="m0 0h1v5l-4 4-1 2-1 11-1 1h-8l2-4 5-7 5-9z" fill="#C65E9C"/>
<path transform="translate(995,281)" d="m0 0h13v1l-6 1-1 4-6 1h-7l1-6z" fill="#B64D8C"/>
<path transform="translate(895,1107)" d="m0 0h4v6l-1 1h-5v5l-5 2-2 2 1-7z" fill="#BD488E"/>
<path transform="translate(624,858)" d="m0 0h5l-2 4-12 13-4 1 1-5 5-1v-6l7-1z" fill="#BF4F91"/>
<path transform="translate(1379,1639)" d="m0 0h6l-1 5-6 4-4 3h-7l6-7h6z" fill="#C54891"/>
<path transform="translate(1283,269)" d="m0 0 13 1 2 3 4 2h-19z" fill="#B64D8C"/>
<path transform="translate(1326,487)" d="m0 0 2 1-2 4-3 1-2 7-5 1v4h-6l3-5 2-1 2-5 6-4z" fill="#B84B8C"/>
<path transform="translate(591,1575)" d="m0 0 5 1 9 11 5 7h-5l-1-6-6-1-1-5-5-1z" fill="#C0478E"/>
<path transform="translate(541,954)" d="m0 0h6v4h-2l-2 4-3 4-6 1 1-7h6z" fill="#B74B8C"/>
<path transform="translate(956,922)" d="m0 0h14l-1 5-18 1v-2l5-1z" fill="#B74C8C"/>
<path transform="translate(1359,256)" d="m0 0h14v6h-13z" fill="#B84B8C"/>
<path transform="translate(1731,780)" d="m0 0h1l-1 20-1 3h-2l-2 4v-13l3-7h2z" fill="#B64D8C"/>
<path transform="translate(1259,660)" d="m0 0 5 1-1 5-7 10-5 2 1-6h5l1-10z" fill="#C34E93"/>
<path transform="translate(1264,557)" d="m0 0h6v6l-5 1-1 5h-6l1-5z" fill="#BE5694"/>
<path transform="translate(1315,1683)" d="m0 0h6l-5 4-1 3-9 6h-5l2-1-1-4 6-2 5-4h2z" fill="#C45898"/>
<path transform="translate(509,1642)" d="m0 0 1 2h5l1 1v6h5v6l-5-1-7-9z" fill="#BF5594"/>
<path transform="translate(744,742)" d="m0 0h15v1h-7v5l-5 1h-8l1-4 3-1z" fill="#B84E8D"/>
<path transform="translate(303,1498)" d="m0 0h8l-2 6-6 1h-12v-1h7v-4z" fill="#B64D8C"/>
<path transform="translate(874,358)" d="m0 0h5l-3 3h-2v3l-11 6-4-1 2-4h6l1-6h5z" fill="#BD5191"/>
<path transform="translate(272,1530)" d="m0 0h6v11l-5 1v5h-1z" fill="#B64D8C"/>
<path transform="translate(863,1299)" d="m0 0 5 1-1 4-8 7-5 1v-5l6-2 1-5z" fill="#C05193"/>
<path transform="translate(1439,441)" d="m0 0h5l-1 6-8 6-4 1v-6h6v-6z" fill="#B64D8C"/>
<path transform="translate(1442,385)" d="m0 0 2 1-1 5h-6v6h-10l5-5 5-4z" fill="#CA619F"/>
<path transform="translate(893,1267)" d="m0 0h6l-2 4-10 11h-1v-8l1-1h5v-5z" fill="#BE5092"/>
<path transform="translate(899,947)" d="m0 0h12v1l-5 1-1 4-5 1h-7l1-5z" fill="#B94B8C"/>
<path transform="translate(475,762)" d="m0 0 2 4v2h-4l-2 12-1 8h-5l-1 2 1-6 4-8 4-11z" fill="#D663A6"/>
<path transform="translate(712,755)" d="m0 0h14v1l-6 1-1 4-5 1h-7l2-4z" fill="#B84E8D"/>
<path transform="translate(1224,721)" d="m0 0h2l-2 6-4 5-2 4h-5v-6l5-1 1-6z" fill="#BC4F90"/>
<path transform="translate(598,1722)" d="m0 0h6l1 1v5h5l1 1v5l-4-1-2-1v-2l-5-2-2-2z" fill="#BD5292"/>
<path transform="translate(1200,895)" d="m0 0h10l-2 1v3l-8 2h-11l4-2 1-3z" fill="#CC4593"/>
<path transform="translate(1021,666)" d="m0 0h13l-2 5-10 1h-7v-1h5z" fill="#B64D8C"/>
<path transform="translate(720,1786)" d="m0 0h12l1 6h-10l-3-2z" fill="#B64D8C"/>
<path transform="translate(767,1249)" d="m0 0h4v5h-6l-1 6-6 1 1-7z" fill="#BB5492"/>
<path transform="translate(981,1162)" d="m0 0h1v5l-6 7-3 4h-3v-6l5-1v-6l5-1z" fill="#BF4D90"/>
<path transform="translate(435,1011)" d="m0 0h3v13h-6v-10z" fill="#B64D8C"/>
<path transform="translate(1757,653)" d="m0 0h3l3 4v14l-3-2v-2l-2-1v-2l-1-4z" fill="#B74C8C"/>
<path transform="translate(822,390)" d="m0 0h6v1h-5l-1 5-8 6h-4v-5l6-2 2-4z" fill="#BE5192"/>
<path transform="translate(1400,269)" d="m0 0h11l3 3 3 1 1 3-13-1z" fill="#B74C8C"/>
<path transform="translate(701,1780)" d="m0 0h12l1 4 6 1v1h-13l-6-1z" fill="#B64D8C"/>
<path transform="translate(1698,1235)" d="m0 0h1v12l-1 1h-5v-11z" fill="#B64C8C"/>
<path transform="translate(1193,614)" d="m0 0h13v1l-5 1-1 4-13 1 1-4h5z" fill="#B84B8C"/>
<path transform="translate(700,460)" d="m0 0h7v7h-12v-3h2v-2z" fill="#B64C8C"/>
<path transform="translate(1334,1671)" d="m0 0h6l-1 3-10 6-3 3-4-1 1-4 7-3z" fill="#BE488E"/>
<path transform="translate(461,1148)" d="m0 0h1v11l-2 6h-2l-1 4v-17z" fill="#B64D8C"/>
<path transform="translate(1768,1017)" d="m0 0h1v11l-3 3-2-1v6h-1v-11l1-7z" fill="#B64C8C"/>
<path transform="translate(1783,775)" d="m0 0h1l3 16 1 2v7h-5z" fill="#D85CA3"/>
<path transform="translate(1961,277)" d="m0 0 3 3 3 9v14l-4 10h-1v-6h2l1-13-1-5-2-1z" fill="#FEFEFE"/>
<path transform="translate(1762,1042)" d="m0 0h1v14l-6 1v-7l2-5 3-1z" fill="#B64D8C"/>
<path transform="translate(1683,864)" d="m0 0h4v6l-6 1-1 5-6 1 1-5 5-5z" fill="#B84B8C"/>
<path transform="translate(679,768)" d="m0 0h5l-2 6h-16l1-2z" fill="#B74C8C"/>
<path transform="translate(1525,499)" d="m0 0h8l-1 6-15 1 4-5z" fill="#B94A8D"/>
<path transform="translate(1667,372)" d="m0 0 6 4 10 4 3 4h-7l-5-1v-5l-7-1z" fill="#C25294"/>
<path transform="translate(1462,294)" d="m0 0h10l3 2v5h-7l-4-1z" fill="#B74B8C"/>
<path transform="translate(1591,1420)" d="m0 0h5l-1 5-3 5h-2l-1 3-5 1 1-6 5-1z" fill="#BF5494"/>
<path transform="translate(705,1300)" d="m0 0 2 1-5 4-1 7-8 2-5 3 2-5z" fill="#C55798"/>
<path transform="translate(1120,640)" d="m0 0h10l-2 6h-11l1-5z" fill="#B64C8C"/>
<path transform="translate(1405,301)" d="m0 0h11l2 1v5h-10l-1-3h-2z" fill="#B74B8C"/>
<path transform="translate(1158,1677)" d="m0 0h10l-1 5-4 1h-8l1-5z" fill="#B84B8C"/>
<path transform="translate(1666,1305)" d="m0 0h1v8l-5 9h-1v-15z" fill="#B64D8C"/>
<path transform="translate(533,971)" d="m0 0 1 4-7 8-2 3-4-1 1-5h5v-6l2-2z" fill="#BE4D90"/>
<path transform="translate(830,761)" d="m0 0h11v1h-6v3l-7 2h-8l2-1 1-4z" fill="#BA4A8D"/>
<path transform="translate(771,403)" d="m0 0h7v1h-6v5l-1 1h-5l-1 6h-7l2-5 6-3h2v-2h2z" fill="#B64D8C"/>
<path transform="translate(879,330)" d="m0 0 2 1-4 3-2-1zm-6 4 2 1-1 4-6 1-1 5h-11l3-2z" fill="#D963A7"/>
<path transform="translate(1341,281)" d="m0 0h12l6 2 1 4h-8l-5-1v-4h-6z" fill="#B64D8C"/>
<path transform="translate(1538,1494)" d="m0 0h1v6l-7 7-5 3v-6h5v-6l5-2z" fill="#C34890"/>
<path transform="translate(1575,1197)" d="m0 0h3v12l-1 1h-5v-7z" fill="#B64D8C"/>
<path transform="translate(572,916)" d="m0 0h1v7l-10 11h-3v-6l5-1 1-5 6-1z" fill="#C04D91"/>
<path transform="translate(1361,1652)" d="m0 0h5v4l-8 6-2 2h-5l2-6 7-2z" fill="#BE4B8F"/>
<path transform="translate(456,1592)" d="m0 0 1 2-5 2-3 3-9 1-1-3h2l1-3z" fill="#B84B8C"/>
<path transform="translate(708,1434)" d="m0 0h6l-2 5-3 3h-2v2l-3 2h-3v-5l6-2z" fill="#BF5493"/>
<path transform="translate(1639,1344)" d="m0 0h3l-1 9-2 3-4 1v-7l1-5z" fill="#B64D8C"/>
<path transform="translate(368,1310)" d="m0 0 3 3 1 5h2v18h-1l-3-13-2-5z" fill="#D75BA3"/>
<path transform="translate(810,1069)" d="m0 0h6l-2 5-8 7h-3v-5l1-1h6z" fill="#BF5594"/>
<path transform="translate(450,826)" d="m0 0h1v13h-3v17l-2-4v-14l3-11z" fill="#D655A0"/>
<path transform="translate(1622,353)" d="m0 0 10 1 11 3v1h-20z" fill="#D758A1"/>
<path transform="translate(1098,1703)" d="m0 0h7l-2 6h-12l2-4z" fill="#B94B8C"/>
<path transform="translate(1405,1619)" d="m0 0h10l-5 5-12 6 1-5 4-2z" fill="#BD5392"/>
<path transform="translate(476,1360)" d="m0 0 1 4h2l4 8v5l-6-1-2-14z" fill="#B64D8C"/>
<path transform="translate(911,1248)" d="m0 0h1l-1 7-6 7-6 4v-5l6-2v-5l5-4z" fill="#BE488E"/>
<path transform="translate(1736,1133)" d="m0 0h1v11l-2 2h-4v-7l2-5z" fill="#B64C8C"/>
<path transform="translate(848,710)" d="m0 0h7l-2 6-11 1v-4l6-1z" fill="#B84B8C"/>
<path transform="translate(643,544)" d="m0 0h6l-1 5-7 5-1 2h-3v-6h6z" fill="#C15896"/>
<path transform="translate(1687,384)" d="m0 0 13 1-1 5h-12z" fill="#FEFEFE"/>
<path transform="translate(841,1729)" d="m0 0h10l3 2v4l-12-1z" fill="#B64D8C"/>
<path transform="translate(1262,1621)" d="m0 0 3 1-1 4h-6v6h-7l1-5 6-3z" fill="#B64C8C"/>
<path transform="translate(1609,1395)" d="m0 0h1v7l-3 5-4 1v-6l1-1v-5z" fill="#B64C8C"/>
<path transform="translate(701,1127)" d="m0 0 5 1 1 3 14 1v1h-39v-1l19-1z" fill="#B64D8C"/>
<path transform="translate(783,1094)" d="m0 0 1 3-9 9h-4v-5l1-1h6v-5z" fill="#C24B91"/>
<path transform="translate(1070,653)" d="m0 0h2v6h-18l2-2z" fill="#DB6BAC"/>
<path transform="translate(705,1786)" d="m0 0h15l1 4 2 1 9 1v1h-10l-17-6z" fill="#E38EBF"/>
<path transform="translate(796,1716)" d="m0 0h7l6 3 1 3h-12z" fill="#B64D8C"/>
<path transform="translate(359,1635)" d="m0 0h2l-1 3-15 6h-5l2-5 13-2z" fill="#C64A93"/>
<path transform="translate(1489,551)" d="m0 0h6l-1 5-11 4-1-4 5-1v-3z" fill="#C05193"/>
<path transform="translate(1502,1530)" d="m0 0h5l-1 5-7 7-4-1 2-4 3-1z" fill="#B84B8C"/>
<path transform="translate(1590,1152)" d="m0 0h1v12l-2 2h-3l-1 2v-9z" fill="#B64D8C"/>
<path transform="translate(469,1108)" d="m0 0h1v11l-5 7h-1v-12l4-2z" fill="#B74C8C"/>
<path transform="translate(1215,845)" d="m0 0 4 1h-2v4l-4 1h-12l1-2h4v-2z" fill="#B84B8C"/>
<path transform="translate(1315,608)" d="m0 0h13v3l-6 2h-10l2-1z" fill="#B84B8C"/>
<path transform="translate(574,595)" d="m0 0h5v6h-6v3h-2v2l-4 1 1-4 4-5v-2z" fill="#B84B8C"/>
<path transform="translate(1677,536)" d="m0 0 4 1 2 5 4 1v13l-2-4-8-14z" fill="#C85B9B"/>
<path transform="translate(791,410)" d="m0 0h5v4l-8 6-4 2v-7h6z" fill="#C04A90"/>
<path transform="translate(1029,269)" d="m0 0h11l-2 4-4 2h-7v-5z" fill="#B64D8C"/>
<path transform="translate(1552,1265)" d="m0 0h1l-1 15h-6v-6l3-3z" fill="#B74C8C"/>
<path transform="translate(1648,890)" d="m0 0h5l-3 2-2 4-6 1-1 5h-6l1-5 10-5h2z" fill="#B74C8C"/>
<path transform="translate(1628,422)" d="m0 0h2l-1 13-7 2-2 1 2-5z" fill="#BD4C8F"/>
<path transform="translate(1453,288)" d="m0 0h7l9 5v2l-13-1v-5z" fill="#C8589A"/>
<path transform="translate(1121,1771)" d="m0 0 2 2h-10v2h-2l-1 4h-7l1-6z" fill="#B84B8C"/>
<path transform="translate(957,1736)" d="m0 0h13l-1 5h-12v-3z" fill="#B64D8C"/>
<path transform="translate(1058,1716)" d="m0 0h7v5l-4 1h-8v-4z" fill="#B64D8C"/>
<path transform="translate(640,519)" d="m0 0 2 1-5 6-2 5h-9l4-5 9-6z" fill="#CB70A6"/>
<path transform="translate(1006,301)" d="m0 0h8l-1 4-3 2h-8l1-5z" fill="#BB4A8D"/>
<path transform="translate(1373,256)" d="m0 0 6 1 10 4v1h-16z" fill="#D75BA3"/>
<path transform="translate(848,755)" d="m0 0h6v4h-4v2h-8v-5z" fill="#B64C8C"/>
<path transform="translate(1072,653)" d="m0 0h12l-3 5-9 1z" fill="#B64D8C"/>
<path transform="translate(1283,627)" d="m0 0h5l-3 7-4 5-4 1v-6l5-2z" fill="#BB5190"/>
<path transform="translate(1699,518)" d="m0 0 5 2 5 9v2l-5-1-2-4h-2z" fill="#BE4F91"/>
<path transform="translate(1582,467)" d="m0 0h9l-1 2h-2v3l-13 2 5-6z" fill="#B84B8C"/>
<path transform="translate(955,295)" d="m0 0h8l-1 5-5 1h-7l1-4z" fill="#B64D8C"/>
<path transform="translate(1929,281)" d="m0 0h1v6l-1 1-8 1-3 5-7 1 5-4 9-8z" fill="#FEFEFE"/>
<path transform="translate(1149,1760)" d="m0 0h6v5l-2 1h-10l3-5z" fill="#B84B8C"/>
<path transform="translate(1277,1707)" d="m0 0m-5 1h5l-1 3h-2l-1 3-8 1v-6z" fill="#B94B8C"/>
<path transform="translate(764,1107)" d="m0 0h6v1h-5l-1 6-6 3-5 3-3-1h2v-5l8-2 3-2z" fill="#BD4C8F"/>
<path transform="translate(910,1089)" d="m0 0h2v5l-5 1-1 6-6 2 1-5 1-2h2l2-4z" fill="#BD488D"/>
<path transform="translate(893,742)" d="m0 0h6v4l-6 2h-7l1-5z" fill="#B64D8C"/>
<path transform="translate(921,735)" d="m0 0h3l-1 3-8 4h-6l3-6z" fill="#B74C8C"/>
<path transform="translate(1014,710)" d="m0 0h7l-1 4-6 2h-6v-5z" fill="#B64D8C"/>
<path transform="translate(1373,595)" d="m0 0h6v3l-9 3h-6l2-3v-2z" fill="#BB498D"/>
<path transform="translate(881,352)" d="m0 0h11v2l-3 3-9 1v-5z" fill="#B74B8C"/>
<path transform="translate(877,333)" d="m0 0h5l-2 1v5l-7 2h-4l-2 4v-5l1-1h6l1-5z" fill="#B64C8C"/>
<path transform="translate(1315,275)" d="m0 0 19 1-1 4h-7l-10-3z" fill="#B64D8C"/>
<path transform="translate(1373,262)" d="m0 0h18l4 3 3 1v3h-6l-4-3v-2l-15-1z" fill="#B84B8C"/>
<path transform="translate(1182,1747)" d="m0 0h6l-1 5-4 2h-14v-1l9-1 2-4z" fill="#B94B8C"/>
<path transform="translate(1429,1469)" d="m0 0h2v8l-2 2h-8l6-8z" fill="#C55F9B"/>
<path transform="translate(393,1440)" d="m0 0h1l1 11 4 2v6l-4 4v-6h-2z" fill="#B84B8C"/>
<path transform="translate(843,973)" d="m0 0h6l-1 6h-13l3-3z" fill="#C35596"/>
<path transform="translate(502,793)" d="m0 0 4 1 2 5v7l-5-1-1-5z" fill="#B94B8C"/>
<path transform="translate(1416,724)" d="m0 0h8v5h-6-3l-4 1v-5z" fill="#B64D8C"/>
<path transform="translate(823,717)" d="m0 0h10l-3 1-1 5-13-1v-1l5-1z" fill="#B74B8C"/>
<path transform="translate(675,480)" d="m0 0h6l-3 3h-2l-1 4-2 5h-4v-5z" fill="#B64D8C"/>
<path transform="translate(1596,459)" d="m0 0h1v7l-1 1h-13l4-3z" fill="#C75A9A"/>
<path transform="translate(337,1485)" d="m0 0h8l-3 6-6 1h-9v-1h8l1-5z" fill="#B64C8C"/>
<path transform="translate(1523,1325)" d="m0 0h4v5l-6 8h-1v-9l1-2h2z" fill="#B74B8C"/>
<path transform="translate(1710,1213)" d="m0 0h1l-1 7-3 7-2 6-1-2v-8l1-7h5z" fill="#D567A7"/>
<path transform="translate(993,1139)" d="m0 0h2v8l-5 4-2 2 1-13z" fill="#B74C8C"/>
<path transform="translate(1058,1031)" d="m0 0h1v8l-2 4h-4v-7l2-4z" fill="#B74B8C"/>
<path transform="translate(1251,876)" d="m0 0h10v1h-9l-1 6h-9l2-1 1-5z" fill="#B64C8C"/>
<path transform="translate(490,730)" d="m0 0h5v5l-5 1v6h-4l1-5z" fill="#C866A0"/>
<path transform="translate(704,454)" d="m0 0h2l1 6-7 1-3 1v2h-2v4h-5l6-7z" fill="#DA68AA"/>
<path transform="translate(1564,1235)" d="m0 0h1v7l-2 6h-4v-6l3-6z" fill="#B64D8C"/>
<path transform="translate(777,422)" d="m0 0h1v6l-10 7h-3v-5l8-3h4z" fill="#BF4F91"/>
<path transform="translate(754,1799)" d="m0 0h17l1 5-8-1-10-3z" fill="#E698C5"/>
<path transform="translate(1030,1724)" d="m0 0h9l-1 3-4 2-14-1 3-2z" fill="#D375AC"/>
<path transform="translate(316,1651)" d="m0 0 2 1-2 5-10 4-3 1 1-5 7-2 2-3z" fill="#C35194"/>
<path transform="translate(325,1645)" d="m0 0h10l-1 3h-2l-1 3h-7z" fill="#B84B8C"/>
<path transform="translate(1592,1133)" d="m0 0h5v6l-2 1v3l-4 3v-12z" fill="#B64D8C"/>
<path transform="translate(392,1109)" d="m0 0h1v18h-2l-1 5h-2l2-14z" fill="#D962A7"/>
<path transform="translate(733,1043)" d="m0 0h7l-1 6-11 1z" fill="#BE488E"/>
<path transform="translate(1054,698)" d="m0 0h11l-2 4-2 1h-9z" fill="#B84B8C"/>
<path transform="translate(593,602)" d="m0 0h5v7l-6 5-1-2z" fill="#BA4A8D"/>
<path transform="translate(969,288)" d="m0 0 2 1-1 6h-15l4-3 9-3z" fill="#D667A8"/>
<path transform="translate(1025,269)" d="m0 0 4 1h-2v6l-12 1v-2h5l1-5z" fill="#C94692"/>
<path transform="translate(1214,1651)" d="m0 0h5v6l-3 1h-9l3-3h2z" fill="#B64D8C"/>
<path transform="translate(489,1401)" d="m0 0 4 4 1 12-4-2-1-5z" fill="#B84B8C"/>
<path transform="translate(1774,997)" d="m0 0 1 4-4 14h-1v-17z" fill="#D85FA5"/>
<path transform="translate(689,468)" d="m0 0h5v5h-6l-1 6h-5l2-4 3-3z" fill="#B84B8C"/>
<path transform="translate(644,1754)" d="m0 0h9l2 6-10-1z" fill="#B84B8C"/>
<path transform="translate(368,1626)" d="m0 0h12v2l-6 3-1 1h-5z" fill="#B74C8C"/>
<path transform="translate(1609,1044)" d="m0 0h1v12h-6v-9l4 1z" fill="#B64D8C"/>
<path transform="translate(1611,909)" d="m0 0h5v6h-12l4-4z" fill="#DF7AB4"/>
<path transform="translate(507,851)" d="m0 0h1l-1 7-4 5-4-1h2l2-10z" fill="#BD488D"/>
<path transform="translate(473,768)" d="m0 0h4l1 4-4 7-3 1v-7z" fill="#B64D8C"/>
<path transform="translate(865,705)" d="m0 0 3 1-1 4h-17l4-2 5-2z" fill="#DF7AB4"/>
<path transform="translate(1387,589)" d="m0 0h11l-2 3-7 3h-6l3-1z" fill="#B74C8C"/>
<path transform="translate(235,1683)" d="m0 0h5v7h-13v-1l6-1 1-4z" fill="#B94B8C"/>
<path transform="translate(522,1658)" d="m0 0h6l1 8 5 4-1 2-8-7-3-3z" fill="#C7619D"/>
<path transform="translate(405,1072)" d="m0 0h1v16l-6 1 3-9z" fill="#DB6CAC"/>
<path transform="translate(605,812)" d="m0 0 6 1v5l-4 1h-7z" fill="#B94B8C"/>
<path transform="translate(1112,774)" d="m0 0h5v6l-1 1h-5v3l-2-1 1-8z" fill="#B84B8C"/>
<path transform="translate(819,718)" d="m0 0h3v4 2h-16l2-2z" fill="#D05CA0"/>
<path transform="translate(707,480)" d="m0 0h6l-1 5-3 2h-4v2l-4 2v-5h6z" fill="#BC4D8F"/>
<path transform="translate(1368,442)" d="m0 0h4v5l-5 1-1 5-5 1 1-4 3-3 1-4z" fill="#B94B8C"/>
<path transform="translate(1437,313)" d="m0 0 12 1 1 6h-6l-4-4z" fill="#B74C8C"/>
<path transform="translate(1071,256)" d="m0 0h2v6h-15l3-2z" fill="#E492C2"/>
<path transform="translate(490,1619)" d="m0 0h5l2 7 2 1v3h2l-1 2-8-7z" fill="#BC5291"/>
<path transform="translate(1660,1312)" d="m0 0h1v11l-6 2v6h-1l1-13h5z" fill="#B84B8C"/>
<path transform="translate(1755,1071)" d="m0 0h1v10l-3 7h-2v-9l1-3 2-1z" fill="#B64D8C"/>
<path transform="translate(1282,819)" d="m0 0 3 1h-2v6h-14l3-2z" fill="#D563A5"/>
<path transform="translate(1146,671)" d="m0 0m-10 1h10v3l-7 3h-4z" fill="#B94A8D"/>
<path transform="translate(1251,573)" d="m0 0h1v9l-7 2-4 3 2-4 7-9z" fill="#D3579F"/>
<path transform="translate(1560,346)" d="m0 0 11 1v4l2 1h-9v-2h-2z" fill="#B64D8C"/>
<path transform="translate(1361,287)" d="m0 0h12l6 2 1 5h-6l-2-3v-3h-11z" fill="#B74C8C"/>
<path transform="translate(214,1696)" d="m0 0h5l-1 2-14 7-4-1 4-2h4v-5z" fill="#E07EB6"/>
<path transform="translate(415,1607)" d="m0 0h10v3l-5 2h-7z" fill="#B94A8D"/>
<path transform="translate(1686,1261)" d="m0 0h1l-1 11-3 2-3-1 1-7z" fill="#B74C8C"/>
<path transform="translate(928,1063)" d="m0 0h3v5l-3 1h-3v6l-5 1 6-11z" fill="#BA4A8D"/>
<path transform="translate(452,819)" d="m0 0h5l-4 1v6h4l-1 5-3 1-1 6h-1v-12z" fill="#B64D8C"/>
<path transform="translate(1443,730)" d="m0 0 3 4v12l-3 4z" fill="#E07EB6"/>
<path transform="translate(1405,545)" d="m0 0h6l1 3-1 2-15 1 2-2 6-2z" fill="#B74C8C"/>
<path transform="translate(623,533)" d="m0 0h1l-1 10-5 2-3-1 4-7h2v-2h2z" fill="#C7639E"/>
<path transform="translate(681,1772)" d="m0 0 13 1 1 6h-7l-1-6h-6z" fill="#B64C8C"/>
<path transform="translate(971,1735)" d="m0 0h19v1l-6 1-2 3h-6v-4h-5z" fill="#B64D8C"/>
<path transform="translate(248,1638)" d="m0 0h5l-1 7h-5v6h-1v-8z" fill="#B64D8C"/>
<path transform="translate(1486,1391)" d="m0 0h2v10l-6 1v-7h2v-2h2z" fill="#B64D8C"/>
<path transform="translate(807,1210)" d="m0 0 3 1-2 5h-5v6h-6l5-7h2l2-4z" fill="#B64C8C"/>
<path transform="translate(521,680)" d="m0 0 1 4-2 7h-5v-6l4-1z" fill="#B74C8C"/>
<path transform="translate(1680,481)" d="m0 0 5 4 2 8h-5l-2-7z" fill="#B84B8C"/>
<path transform="translate(1430,281)" d="m0 0h11l2 2v5h-6l-1-5-6-1z" fill="#B94B8C"/>
<path transform="translate(1474,1405)" d="m0 0 2 3-1 7h-6l-2 4v-3z" fill="#CB62A0"/>
<path transform="translate(425,1035)" d="m0 0 1 2-2 6h-4v7h-1v-11l2-3z" fill="#B84B8C"/>
<path transform="translate(798,998)" d="m0 0h12v1h-7v5l-1 1h-5z" fill="#B84B8C"/>
<path transform="translate(1232,883)" d="m0 0h6l-2 4-4 2h-6l1-4z" fill="#B64D8C"/>
<path transform="translate(536,870)" d="m0 0h5v6l-8 1h-3z" fill="#C35897"/>
<path transform="translate(787,774)" d="m0 0h9v1h-5l-2 4-10 1v-3z" fill="#B64D8C"/>
<path transform="translate(1209,608)" d="m0 0 4 1-1 4-5 1h-9l2-2z" fill="#C75698"/>
<path transform="translate(1651,493)" d="m0 0h4l1 6 4 1v5l-6-2z" fill="#BD4D90"/>
<path transform="translate(1382,430)" d="m0 0v3l-3 5v2l-6 2-4-1 8-7z" fill="#C95E9D"/>
<path transform="translate(649,1344)" d="m0 0h6v1h-5v5l-12 1v-1h5l1-5z" fill="#B74C8C"/>
<path transform="translate(1097,953)" d="m0 0h1v9l-3 4h-3l-1-4 1-3 3-1z" fill="#B84B8C"/>
<path transform="translate(564,845)" d="m0 0h3v5l-10 4h-3z" fill="#C55396"/>
<path transform="translate(1316,243)" d="m0 0 7 1 11 4v1h-13v-4l-5-1z" fill="#DD71AF"/>
<path transform="translate(752,1401)" d="m0 0h6l-2 4-3 3h-5l-1-3 4-1z" fill="#BC498D"/>
<path transform="translate(1011,1119)" d="m0 0 1 2-9 14h-1v-8l4-1 2-6z" fill="#D758A1"/>
<path transform="translate(677,1094)" d="m0 0h5l-1 6-4 1-1 6-2-4 1-8z" fill="#B94B8C"/>
<path transform="translate(1631,902)" d="m0 0h4v6l-12 1v-1h5l1-5z" fill="#B64D8C"/>
<path transform="translate(666,774)" d="m0 0h9v1h-6v5l-6 1-1-5z" fill="#B64D8C"/>
<path transform="translate(817,1722)" d="m0 0h8l3 1 1 5h-7v-4l-5-1z" fill="#BB4A8D"/>
<path transform="translate(566,1546)" d="m0 0 7 5v2l4 2 2 2-1 3-11-9z" fill="#BE488E"/>
<path transform="translate(681,1318)" d="m0 0h7l-1 5-1-2-4 4h-7l5-4z" fill="#B74B8C"/>
<path transform="translate(470,870)" d="m0 0 13 1v3h-12z" fill="#B64D8C"/>
<path transform="translate(1072,842)" d="m0 0 1 3-1 6-8 2 2-4 4-5z" fill="#C05193"/>
<path transform="translate(1308,806)" d="m0 0h7v1h-6v5l-7 1 1-5z" fill="#B74C8C"/>
<path transform="translate(482,756)" d="m0 0h1l-1 10-5 2v-6z" fill="#B64D8C"/>
<path transform="translate(1097,647)" d="m0 0h7l-4 4h-2v2h-7l1-4z" fill="#B64D8C"/>
<path transform="translate(855,345)" d="m0 0h12v1l-6 1-1 4-6 1z" fill="#B94B8C"/>
<path transform="translate(944,326)" d="m0 0h6l-1 3-5 1v2h-6l2-5z" fill="#B64D8C"/>
<path transform="translate(1047,288)" d="m0 0h6v5l-1 1h-9l3-1z" fill="#B84B8C"/>
<path transform="translate(1014,1729)" d="m0 0h7v6h-7z" fill="#B64D8C"/>
<path transform="translate(1572,1447)" d="m0 0h5l-1 6-5 5v-7z" fill="#CA6BA3"/>
<path transform="translate(1583,1437)" d="m0 0 1 3-4 7-3 3v-9l5-1z" fill="#CA4C95"/>
<path transform="translate(1581,1178)" d="m0 0h3v7h-3l-1 4-2 2 1-11z" fill="#BC498D"/>
<path transform="translate(1033,1076)" d="m0 0h1v8l-2 4h-5v-6h6z" fill="#B94A8D"/>
<path transform="translate(482,1069)" d="m0 0h1v9l-3 4h-3v-7l4-1z" fill="#B94A8D"/>
<path transform="translate(527,710)" d="m0 0h1v8l-3 5-4 1v-6l5-2z" fill="#B94B8C"/>
<path transform="translate(1546,336)" d="m0 0 8 4 5 3 5 1v1h-12v-5l-6-1z" fill="#E38BBE"/>
<path transform="translate(975,313)" d="m0 0h7v2l-6 3-5 1v-5z" fill="#B64D8C"/>
<path transform="translate(1478,301)" d="m0 0h7l3 3v3h-7l-1-4h-2z" fill="#B74C8C"/>
<path transform="translate(1053,288)" d="m0 0h15v1l-9 3-6 1z" fill="#DB6BAC"/>
<path transform="translate(1161,269)" d="m0 0h1v6h-20v-1l8-1 1-3h4v3l6 1z" fill="#B64D8C"/>
<path transform="translate(575,1709)" d="m0 0h9l1 1v5l-5-1z" fill="#C45F9B"/>
<path transform="translate(1633,1363)" d="m0 0h2l-1 4-5 7h-1v-10z" fill="#D04E99"/>
<path transform="translate(674,1096)" d="m0 0h1v11h-6l1-5z" fill="#D963A7"/>
<path transform="translate(457,864)" d="m0 0h6l1 1v5h-7z" fill="#B64D8C"/>
<path transform="translate(636,793)" d="m0 0h6v1h-5l-1 5-3 1h-3l1-6z" fill="#B74B8C"/>
<path transform="translate(725,749)" d="m0 0 2 1-1 5h-12l4-3z" fill="#D75AA2"/>
<path transform="translate(1776,736)" d="m0 0h1v6h4v7h-5z" fill="#B64D8C"/>
<path transform="translate(606,556)" d="m0 0h5v7h-6v-6z" fill="#B64D8C"/>
<path transform="translate(688,499)" d="m0 0h5v4l-7 3-2 3h-2v-4l4-2z" fill="#B74C8C"/>
<path transform="translate(1464,428)" d="m0 0h6l-1 4-7 3h-5l5-5z" fill="#B94A8D"/>
<path transform="translate(1484,339)" d="m0 0h9l2 1v5h-5l-2-2v-3z" fill="#B74B8C"/>
<path transform="translate(262,1600)" d="m0 0h3v7h-4l-1 9h-1v-8z" fill="#B64D8C"/>
<path transform="translate(1476,1555)" d="m0 0h6v5l-2 2h-5z" fill="#B84B8C"/>
<path transform="translate(604,1370)" d="m0 0h1v6l-1 1h-12v-1h7l1-4z" fill="#B64D8C"/>
<path transform="translate(675,1126)" d="m0 0h7v6h-6z" fill="#B64D8C"/>
<path transform="translate(870,961)" d="m0 0h4v5l-5 1h-9v-1h7l1-4z" fill="#B74C8C"/>
<path transform="translate(1106,787)" d="m0 0 4 1v5l-9 1 3-6z" fill="#C15C98"/>
<path transform="translate(1125,755)" d="m0 0h5l-2 7h-5v-5z" fill="#B84B8C"/>
<path transform="translate(1763,675)" d="m0 0 1 3h3v5h2v6l-2-4-4-1z" fill="#B74C8C"/>
<path transform="translate(1531,621)" d="m0 0 2 1-5 5-2 7h-2l-2 5-2 1 2-5 6-12z" fill="#E3F3F8"/>
<path transform="translate(553,627)" d="m0 0h1v6l-4 2-2 5h-1v-6l4-6z" fill="#B64D8C"/>
<path transform="translate(631,557)" d="m0 0h5v5l-4 4h-2z" fill="#C15696"/>
<path transform="translate(1292,524)" d="m0 0 4 1v6l-9 1z" fill="#BA4A8D"/>
<path transform="translate(199,1697)" d="m0 0h2l1 6-2 2h-5l1-6z" fill="#D13E93"/>
<path transform="translate(1219,1646)" d="m0 0 1 2-1 3-6 2-4 4-4 1 5-6z" fill="#D656A0"/>
<path transform="translate(295,1499)" d="m0 0h3v5h-13l3-2z" fill="#E69BC7"/>
<path transform="translate(834,1331)" d="m0 0h5l-7 7-4-1 1-5z" fill="#BE488E"/>
<path transform="translate(809,1206)" d="m0 0 1 3-5 4-1 2h-2l-2 4-3 3-3-1 3-3h2l2-4z" fill="#DB80B5"/>
<path transform="translate(380,1196)" d="m0 0h1v7l-4 1-2-1v-6z" fill="#B64D8C"/>
<path transform="translate(475,1091)" d="m0 0h1v6l-3 4h-3v-6l4-1z" fill="#BA4A8D"/>
<path transform="translate(694,1075)" d="m0 0h7l-1 6-6 1z" fill="#B84B8C"/>
<path transform="translate(1761,1056)" d="m0 0h2l-1 5-3 6-2-3v-7z" fill="#D75BA3"/>
<path transform="translate(1050,1046)" d="m0 0 2 1v5l-3 1-1 3h-2v-6z" fill="#B94B8C"/>
<path transform="translate(1065,1018)" d="m0 0h1v7l-3 5h-4v-6l5-1z" fill="#BA4A8D"/>
<path transform="translate(1205,752)" d="m0 0h1v5l-5 9h-1v-11h5z" fill="#C05293"/>
<path transform="translate(1047,660)" d="m0 0h5l1 5-1 1h-6v-5z" fill="#B64D8C"/>
<path transform="translate(537,646)" d="m0 0h4v7h-6v-5z" fill="#BA4A8D"/>
<path transform="translate(581,621)" d="m0 0h4l1 6-6 1-1 3 1-9z" fill="#B84B8C"/>
<path transform="translate(258,1621)" d="m0 0h1l-1 11-5 1v-7l5-1z" fill="#B74C8C"/>
<path transform="translate(1552,1472)" d="m0 0h6l-2 5-4 4-3-1 2-2z" fill="#BC4F90"/>
<path transform="translate(895,1107)" d="m0 0h4v6l-1 1h-5v-5z" fill="#B84B8C"/>
<path transform="translate(541,954)" d="m0 0h6v4h-2l-2 4-2 1z" fill="#C15796"/>
<path transform="translate(472,947)" d="m0 0h5v6l-6 1z" fill="#B84B8C"/>
<path transform="translate(746,787)" d="m0 0h6l-1 5-2 1h-8l3-2h2z" fill="#BA4A8D"/>
<path transform="translate(1730,771)" d="m0 0h1v16l-2 1-2 6-1-3 3-11z" fill="#DF7AB4"/>
<path transform="translate(989,717)" d="m0 0h6v5l-3 1h-7l3-2z" fill="#BB498D"/>
<path transform="translate(565,647)" d="m0 0h1v8l-6 4v-6l4-3z" fill="#B84B8C"/>
<path transform="translate(1177,621)" d="m0 0h6l-2 1v5h-7l1-4z" fill="#B64D8C"/>
<path transform="translate(707,454)" d="m0 0h7l-1 6h-6l-1-5z" fill="#B64D8C"/>
<path transform="translate(1317,1578)" d="m0 0 2 1-2 3h-2v5l-8 1 5-6h2v-2z" fill="#D5539E"/>
<path transform="translate(1333,1569)" d="m0 0h1v6h-10l4-4z" fill="#C6619D"/>
<path transform="translate(1348,1555)" d="m0 0h6l-1 4-5 3h-6v-1h5v-5z" fill="#B64D8C"/>
<path transform="translate(849,1312)" d="m0 0h8l-6 7-3 1v-7z" fill="#C25194"/>
<path transform="translate(1531,1312)" d="m0 0 2 1-1 6-3 1-2 4v-9z" fill="#B64D8C"/>
<path transform="translate(457,1286)" d="m0 0 3 1 2 6v11h-1l-1-11h-3z" fill="#B64D8C"/>
<path transform="translate(758,1024)" d="m0 0h7l-1 6h-6z" fill="#B84B8C"/>
<path transform="translate(501,909)" d="m0 0 2 1-1 5-5 3-2 4-4 1 4-6z" fill="#DB6CAD"/>
<path transform="translate(1387,794)" d="m0 0h5l-1 4-5 5-2-1z" fill="#C15896"/>
<path transform="translate(811,767)" d="m0 0h8l-4 1v2l-6 3h-5l2-1v-3z" fill="#B64D8C"/>
<path transform="translate(1136,740)" d="m0 0 1 3-2 7-5 4v-6l5-6z" fill="#B64C8C"/>
<path transform="translate(1726,665)" d="m0 0 5 1v9h-3z" fill="#D85DA4"/>
<path transform="translate(1546,525)" d="m0 0h7l-1 5-6 1z" fill="#B64C8C"/>
<path transform="translate(1496,512)" d="m0 0h5v5l-1 1h-6l1-5z" fill="#B74C8C"/>
<path transform="translate(1533,495)" d="m0 0h6v4h-12l1-2z" fill="#CC6FA6"/>
<path transform="translate(1440,447)" d="m0 0 2 1-6 4-2 2h-3v-6z" fill="#C15294"/>
<path transform="translate(1457,377)" d="m0 0h6l-1 6h-6v-5z" fill="#B64C8C"/>
<path transform="translate(1337,250)" d="m0 0 7 1 3 1v4h-6l-1-4-3-1z" fill="#B64D8C"/>
<path transform="translate(598,1583)" d="m0 0 4 2 5 5 3 4h-5l-1-6-6-1z" fill="#B74C8C"/>
<path transform="translate(606,1504)" d="m0 0h5l-1 4-4 3h-7v-1l5-1z" fill="#B94A8C"/>
<path transform="translate(374,1473)" d="m0 0h3v2h-2v3l-8 1 1-5z" fill="#B74C8C"/>
<path transform="translate(1565,1453)" d="m0 0h6v6h-6z" fill="#B64C8C"/>
<path transform="translate(558,1395)" d="m0 0h8v1h-6l-1 5h-6l2-4z" fill="#B64D8C"/>
<path transform="translate(1509,1350)" d="m0 0h4v6l-5 1-1 2 1-8z" fill="#B64D8C"/>
<path transform="translate(418,1041)" d="m0 0h1v9h-3l-2 6-2 1 3-10z" fill="#D963A7"/>
<path transform="translate(988,909)" d="m0 0 2 1-2 5h-11l2-2z" fill="#DC6EAD"/>
<path transform="translate(1266,826)" d="m0 0h10v1h-6v5h-6z" fill="#BA4A8D"/>
<path transform="translate(1285,819)" d="m0 0h5l-1 6h-6v-5z" fill="#B64D8C"/>
<path transform="translate(1431,755)" d="m0 0h8l-5 7h-3z" fill="#C45C9A"/>
<path transform="translate(497,717)" d="m0 0h5v6l-6 1v-6z" fill="#B94B8C"/>
<path transform="translate(1445,569)" d="m0 0h5v5l-7 1v-5z" fill="#B84B8C"/>
<path transform="translate(611,548)" d="m0 0 2 1-2 7-6 2-5 4 2-4 3-3h2l2-4z" fill="#DD73B0"/>
<path transform="translate(1428,538)" d="m0 0 4 1-2 5h-6v-4z" fill="#B94A8C"/>
<path transform="translate(663,493)" d="m0 0h6l-1 6h-6v-5z" fill="#B64C8C"/>
<path transform="translate(785,1805)" d="m0 0 17 1 1 3h-7l-11-3z" fill="#FEFEFE"/>
<path transform="translate(1113,1773)" d="m0 0h11l-1 2-7 2-6 1 1-3h2z" fill="#DF7AB4"/>
<path transform="translate(573,1703)" d="m0 0h6v6h-5l-1-1z" fill="#B64C8C"/>
<path transform="translate(750,1697)" d="m0 0h6l2 2-1 4-5-1z" fill="#B64D8C"/>
<path transform="translate(242,1651)" d="m0 0h4v6l-6 1v-6z" fill="#B64D8C"/>
<path transform="translate(1293,1600)" d="m0 0h3v6l-4 1-2-1v-5z" fill="#B64D8C"/>
<path transform="translate(1458,1580)" d="m0 0 3 1-6 4-6 5 2-8z" fill="#C75C9B"/>
<path transform="translate(1354,1549)" d="m0 0h6v5l-1 1h-5z" fill="#B64D8C"/>
<path transform="translate(1373,1530)" d="m0 0h6v5l-1 1h-5z" fill="#B64D8C"/>
<path transform="translate(625,1491)" d="m0 0h10l-2 2h-3v2l-6 2v-5z" fill="#B64D8C"/>
<path transform="translate(354,1479)" d="m0 0h5l-4 6h-6v-3z" fill="#B94A8D"/>
<path transform="translate(861,1150)" d="m0 0v3l-1 5h-5v-4z" fill="#BC498D"/>
<path transform="translate(966,1013)" d="m0 0v3l-2 2-1 6h-5l1-5z" fill="#BA4A8D"/>
<path transform="translate(484,934)" d="m0 0 5 1v5l-6 1z" fill="#B64D8C"/>
<path transform="translate(503,909)" d="m0 0h5v6h-6v-5z" fill="#B64C8C"/>
<path transform="translate(1186,787)" d="m0 0h1v6l-5 1-1-1v-5z" fill="#B94B8C"/>
<path transform="translate(758,737)" d="m0 0h1v5h-11l1-2z" fill="#DC6FAE"/>
<path transform="translate(1157,704)" d="m0 0h4l-2 5-4 2-4 6-1-2 5-7z" fill="#C65095"/>
<path transform="translate(1225,602)" d="m0 0 4 1-2 1-1 4h-7l2-5z" fill="#BC498D"/>
<path transform="translate(1255,569)" d="m0 0 3 1v6h-6v-5z" fill="#BA4A8D"/>
<path transform="translate(625,531)" d="m0 0h5v6h-6v-5z" fill="#B84B8C"/>
<path transform="translate(1427,456)" d="m0 0m-1 1 1 3-6 6h-3v-5l6-2z" fill="#BF4D91"/>
<path transform="translate(1455,377)" d="m0 0 2 1-1 5-10 1 4-4z" fill="#D6539F"/>
<path transform="translate(900,320)" d="m0 0h6l-1 6h-6z" fill="#B64D8C"/>
<path transform="translate(759,1794)" d="m0 0h4l2 3 6 1v1h-13z" fill="#B64D8C"/>
<path transform="translate(1220,1645)" d="m0 0h6l-1 6h-6z" fill="#B74C8C"/>
<path transform="translate(470,1350)" d="m0 0 5 1 1 8-5-2z" fill="#BC498D"/>
<path transform="translate(1711,1206)" d="m0 0 1 4-2 6h-4v-6l4-2z" fill="#B64D8C"/>
<path transform="translate(1730,1157)" d="m0 0 1 3-3 5h-3v-7z" fill="#B64D8C"/>
<path transform="translate(669,1126)" d="m0 0h6l1 6h6v1h-7l-6-5z" fill="#D6549F"/>
<path transform="translate(496,1030)" d="m0 0h5l-1 4-4 5-1-8z" fill="#C35295"/>
<path transform="translate(514 1e3)" d="m0 0h1v5l-3 4h-3v-6l5-1z" fill="#BA4A8D"/>
<path transform="translate(937,991)" d="m0 0 3 1h-2l-2 4-4 2-3-1h2v-5z" fill="#BB498D"/>
<path transform="translate(1026,896)" d="m0 0 3 1-2 5h-6v-4z" fill="#B84B8C"/>
<path transform="translate(1052,876)" d="m0 0h1v6l-1 1h-5l1-6z" fill="#B84B8C"/>
<path transform="translate(459,800)" d="m0 0h5v5l-1 1h-5v-5z" fill="#B64D8C"/>
<path transform="translate(1381,799)" d="m0 0h4l-1 6-5 1v-6z" fill="#B94B8C"/>
<path transform="translate(1344,781)" d="m0 0h3v6l-8 1 2-5z" fill="#B94B8C"/>
<path transform="translate(651,781)" d="m0 0h5v5l-1 1h-5v-5z" fill="#B74C8C"/>
<path transform="translate(969,723)" d="m0 0h6v2l-5-1-1 4h-6l1-4z" fill="#B64D8C"/>
<path transform="translate(523,672)" d="m0 0h4v6l-6 1v-5z" fill="#B94A8D"/>
<path transform="translate(593,570)" d="m0 0h5v5l-1 1h-5v-5z" fill="#B74C8C"/>
<path transform="translate(1407,410)" d="m0 0h4v6h-6v-5z" fill="#B84B8C"/>
<path transform="translate(1514,320)" d="m0 0 6 1v5h-6z" fill="#B94B8C"/>
<path transform="translate(624,1741)" d="m0 0h6l1 6-5-1-3-2z" fill="#B64C8C"/>
<path transform="translate(1423,1607)" d="m0 0h1v5l-6 4 1-8z" fill="#BE4E91"/>
<path transform="translate(855,1306)" d="m0 0h5l1 3-3 3h-4v-5z" fill="#B94B8C"/>
<path transform="translate(519,991)" d="m0 0h2l-1 6-5 1v-6z" fill="#BC498D"/>
<path transform="translate(1086,973)" d="m0 0h5v5l-6 1v-5z" fill="#B74C8C"/>
<path transform="translate(605,877)" d="m0 0h6l-1 5-5 1z" fill="#B84B8C"/>
<path transform="translate(1247,833)" d="m0 0h5v5h-7v-4z" fill="#BA4A8D"/>
<path transform="translate(580,832)" d="m0 0h5v5l-1 1h-5z" fill="#B64D8C"/>
<path transform="translate(806,724)" d="m0 0h4v5l-7 1v-5z" fill="#B64D8C"/>
<path transform="translate(588,576)" d="m0 0h4v6h-6l1-5z" fill="#B64D8C"/>
<path transform="translate(803,403)" d="m0 0h5l-4 1-1 4-6 1 1-5z" fill="#B64D8C"/>
<path transform="translate(825,365)" d="m0 0h4v6h-6l1-5z" fill="#B64D8C"/>
<path transform="translate(844,352)" d="m0 0h4v6h-6l1-5z" fill="#BB498D"/>
<path transform="translate(1424,307)" d="m0 0h6l3 6-7-1z" fill="#BA4A8D"/>
<path transform="translate(938,301)" d="m0 0 3 1-2 1-1 4h-10l4-3z" fill="#DA66A9"/>
<path transform="translate(1365,288)" d="m0 0h7l2 5-9-2-3-2z" fill="#D75BA3"/>
<path transform="translate(1315,1683)" d="m0 0h6l-5 4-1 2-7 2v-2l5-4h2z" fill="#B64D8C"/>
<path transform="translate(245,1641)" d="m0 0h1v10l-6 1z" fill="#DA68AA"/>
<path transform="translate(1431,1466)" d="m0 0h5v6h-5l-1-5z" fill="#B84B8C"/>
<path transform="translate(1666,1311)" d="m0 0v3l-4 8h-1v-10z" fill="#DA68AA"/>
<path transform="translate(1536,1299)" d="m0 0h3v7h-5l-1 2 1-5z" fill="#B64D8C"/>
<path transform="translate(767,1249)" d="m0 0h4v5h-8l1-3z" fill="#BD4F90"/>
<path transform="translate(971,1171)" d="m0 0h4l1 3-3 4h-3v-6z" fill="#BA4A8D"/>
<path transform="translate(728,1126)" d="m0 0h5l-1 4-6 2v-5z" fill="#B64D8C"/>
<path transform="translate(1013,1112)" d="m0 0h1l-1 7-5 1v-5l5-1z" fill="#B84B8C"/>
<path transform="translate(1749,1099)" d="m0 0h1l-1 7-5 1 1-6z" fill="#BA4A8D"/>
<path transform="translate(804,1075)" d="m0 0h6l-2 5-5 1v-5z" fill="#B94B8C"/>
<path transform="translate(490,864)" d="m0 0h6v4h-3v2h-5l2-1z" fill="#B94B8C"/>
<path transform="translate(1162,853)" d="m0 0 3 1h9v4l-10-1z" fill="#B64D8C"/>
<path transform="translate(1231,840)" d="m0 0h5l-4 5h-6v-4z" fill="#BC498D"/>
<path transform="translate(1719,624)" d="m0 0 1 3h5v6h-4l-2-4z" fill="#B64D8C"/>
<path transform="translate(1744,614)" d="m0 0 2 1v2h2l1 8-3-1v-3h-2z" fill="#BA4A8D"/>
<path transform="translate(1905,518)" d="m0 0h2v15l-3-2v-12z" fill="#FEFEFE"/>
<path transform="translate(941,301)" d="m0 0h3v6h-6l1-5z" fill="#B64D8C"/>
<path transform="translate(1090,251)" d="m0 0 2 1-1 3-13 1 1-2z" fill="#FEFEFE"/>
<path transform="translate(1e3 1799)" d="m0 0h12v1l-12 2-8 1 2-3z" fill="#FEFEFE"/>
<path transform="translate(777,1709)" d="m0 0h5v2h2v4h-5z" fill="#B74C8C"/>
<path transform="translate(700,1669)" d="m0 0 5 2 2 1v4l-6-1 1-3h-2z" fill="#C15495"/>
<path transform="translate(1514,1517)" d="m0 0h6l-1 4-1 2h-4z" fill="#BA4A8D"/>
<path transform="translate(1477,1402)" d="m0 0h4v5l-3 1h-3l1-5z" fill="#B84B8C"/>
<path transform="translate(1613,1389)" d="m0 0h3v6h-6l1-5z" fill="#B64C8C"/>
<path transform="translate(483,1382)" d="m0 0 2 1 4 10v5l-2-3-2-6h-2z" fill="#B74C8C"/>
<path transform="translate(604,1368)" d="m0 0 2 1-6 4-1 3h-6l1-3z" fill="#D85CA4"/>
<path transform="translate(612,1363)" d="m0 0 5 1v5l-6 1z" fill="#B74C8C"/>
<path transform="translate(1557,1254)" d="m0 0h2v7h-5v-5z" fill="#B64D8C"/>
<path transform="translate(431,1015)" d="m0 0h1v9l-6 2 2-6z" fill="#D85CA4"/>
<path transform="translate(822,986)" d="m0 0h7l-1 5h-5z" fill="#B64D8C"/>
<path transform="translate(510,902)" d="m0 0h5l-1 6h-5v-5z" fill="#B64D8C"/>
<path transform="translate(1252,877)" d="m0 0h10l-1 2-10 3z" fill="#D963A7"/>
<path transform="translate(475,762)" d="m0 0 2 4v2h-4l-2 12h-1v-8z" fill="#E288BC"/>
<path transform="translate(486,742)" d="m0 0h3v7l-5 1v-5z" fill="#B94B8C"/>
<path transform="translate(1397,736)" d="m0 0h1v7h-5v6h-1v-7z" fill="#B64D8C"/>
<path transform="translate(1949,723)" d="m0 0 2 4 4 10-1 4-2-4-2-1z" fill="#FEFEFE"/>
<path transform="translate(505,704)" d="m0 0h4v6h-6l1-4z" fill="#B64D8C"/>
<path transform="translate(939,686)" d="m0 0m-2 1 2 1-1 3h-13l4-2z" fill="#DF7BB5"/>
<path transform="translate(1936,668)" d="m0 0h1l3 14 1 4-4-2-1-6z" fill="#FEFEFE"/>
<path transform="translate(1259,660)" d="m0 0 5 1-1 5h-5z" fill="#B74C8C"/>
<path transform="translate(560,614)" d="m0 0 6 1-1 5h-5z" fill="#B64D8C"/>
<path transform="translate(610,588)" d="m0 0 1 4-3 3h-3v-6z" fill="#BB4A8D"/>
<path transform="translate(1444,384)" d="m0 0h6l-1 5-6 1z" fill="#B74C8C"/>
<path transform="translate(1546,339)" d="m0 0 6 1v5h-5z" fill="#B64D8C"/>
<path transform="translate(879,330)" d="m0 0 2 1-4 3-2-1zm-6 4 2 1-1 4h-7l4-4z" fill="#EFC0DB"/>
<path transform="translate(1169,1754)" d="m0 0h11l-3 2-9 3z" fill="#DA64A8"/>
<path transform="translate(605,1728)" d="m0 0h5l1 1v5l-4-1-2-1z" fill="#B84B8C"/>
<path transform="translate(1251,1627)" d="m0 0 1 2-1 4-10 1 3-3z" fill="#D0549C"/>
<path transform="translate(1444,1587)" d="m0 0h6l-2 5-5 1v-5z" fill="#B84B8C"/>
<path transform="translate(1322,1575)" d="m0 0h6v5h-6z" fill="#B74C8C"/>
<path transform="translate(285,1505)" d="m0 0h6l-1 5-5 1z" fill="#B64D8C"/>
<path transform="translate(682,1453)" d="m0 0h6l-1 4-2 2h-3z" fill="#B84B8C"/>
<path transform="translate(708,1434)" d="m0 0h6l-2 5-5 1z" fill="#B74C8C"/>
<path transform="translate(765,1389)" d="m0 0h6l-1 4-3 2-3-1z" fill="#BC498D"/>
<path transform="translate(796,1367)" d="m0 0 3 1-6 6h-3l1-5z" fill="#C0478E"/>
<path transform="translate(707,1299)" d="m0 0h7v1l-5 1-2 5h-6z" fill="#B64C8C"/>
<path transform="translate(1668,1293)" d="m0 0h5v6h-5z" fill="#B74C8C"/>
<path transform="translate(868,1293)" d="m0 0h6l-2 5h-2l-1 3-2-1z" fill="#C05595"/>
<path transform="translate(1703,1233)" d="m0 0 1 3-4 9h-1v-10h4z" fill="#DD71AF"/>
<path transform="translate(792,1222)" d="m0 0h5l-1 6h-5v-5z" fill="#B94B8C"/>
<path transform="translate(1730,1160)" d="m0 0 1 3-5 11h-1v-9l3-1z" fill="#D85EA4"/>
<path transform="translate(468,1120)" d="m0 0 1 4-3 7-1 5h-1v-10z" fill="#D85EA4"/>
<path transform="translate(1015,1101)" d="m0 0h5v6h-5z" fill="#B64C8C"/>
<path transform="translate(743,1037)" d="m0 0h3v6h-6l1-4z" fill="#B64D8C"/>
<path transform="translate(1776,954)" d="m0 0h5v6h-5z" fill="#B64D8C"/>
<path transform="translate(883,954)" d="m0 0 4 1-1 5h-6v-3h2z" fill="#B94B8C"/>
<path transform="translate(966,918)" d="m0 0h4v4h-11l2-2z" fill="#D85EA4"/>
<path transform="translate(1265,870)" d="m0 0h5l-1 5-5 1v-5z" fill="#BA4A8D"/>
<path transform="translate(512,844)" d="m0 0 1 3-4 7h-1v-9z" fill="#CE4D98"/>
<path transform="translate(587,826)" d="m0 0h5v5l-3 1-3-1z" fill="#B64D8C"/>
<path transform="translate(510,813)" d="m0 0h3l2 6v12h-1l-2-15h-2z" fill="#B64D8C"/>
<path transform="translate(1101,794)" d="m0 0h3v6l-6 1 1-5z" fill="#B84B8C"/>
<path transform="translate(785,730)" d="m0 0 4 1-5 1v4h-6l1-4z" fill="#B64D8C"/>
<path transform="translate(1239,589)" d="m0 0h5v6h-5z" fill="#B64C8C"/>
<path transform="translate(1303,512)" d="m0 0h5l-1 5-5 1v-5z" fill="#B64D8C"/>
<path transform="translate(746,420)" d="m0 0 2 1-2 2-1 5-7 1v-2h2v-2h2v-2z" fill="#DD71AF"/>
<path transform="translate(1426,397)" d="m0 0h5l-2 6h-5l1-5z" fill="#B64C8C"/>
<path transform="translate(803,378)" d="m0 0h6l1 5-3 1-3-1z" fill="#B74C8C"/>
<path transform="translate(842,377)" d="m0 0h5v4l-3 2h-3v-5z" fill="#BF488E"/>
<path transform="translate(957,325)" d="m0 0 3 1-14 6h-2v-2l5-1 1-3z" fill="#DD71AF"/>
<path transform="translate(971,288)" d="m0 0h7l-3 1v4l-5 1v-5z" fill="#B64D8C"/>
<path transform="translate(266,1671)" d="m0 0h6l-1 5h-6z" fill="#B84B8C"/>
<path transform="translate(1379,1639)" d="m0 0h6l-1 5h-5z" fill="#B94A8C"/>
<path transform="translate(342,1639)" d="m0 0h7l-2 4-7 1z" fill="#BC498D"/>
<path transform="translate(1490,1548)" d="m0 0 2 1-9 9-1-4 5-5z" fill="#CC5E9E"/>
<path transform="translate(1489,1543)" d="m0 0h6l-2 5-5 1v-5z" fill="#B74B8C"/>
<path transform="translate(1500,1536)" d="m0 0 4 1-5 5-4-1 2-4z" fill="#C5629D"/>
<path transform="translate(318,1493)" d="m0 0h5v5h-6z" fill="#B64D8C"/>
<path transform="translate(565,1390)" d="m0 0 2 1-1 4h-9l3-3z" fill="#D758A1"/>
<path transform="translate(1491,1382)" d="m0 0 4 1-1 5h-5v-5z" fill="#B74B8C"/>
<path transform="translate(1624,1370)" d="m0 0h4v6h-5v-5z" fill="#B64C8C"/>
<path transform="translate(1007,1120)" d="m0 0 1 4-2 3h-4l1-6z" fill="#B64D8C"/>
<path transform="translate(837,1050)" d="m0 0h5l-1 4-3 2h-3z" fill="#BA4A8D"/>
<path transform="translate(861,1031)" d="m0 0h6l-1 5h-5z" fill="#B74B8C"/>
<path transform="translate(424,1027)" d="m0 0h1v9l-5 1 1-4z" fill="#DB6CAC"/>
<path transform="translate(782,1008)" d="m0 0 3 1-1 3-6 5v-6z" fill="#C967A1"/>
<path transform="translate(1073,998)" d="m0 0h4l-1 6-4 1v-6z" fill="#BB498D"/>
<path transform="translate(558,852)" d="m0 0h2v6l-7 1 1-4z" fill="#B64C8C"/>
<path transform="translate(637,845)" d="m0 0h6l-1 4-5 2z" fill="#BA4A8D"/>
<path transform="translate(675,769)" d="m0 0 3 1-2 1-1 3h-9l1-2z" fill="#DE79B4"/>
<path transform="translate(507,759)" d="m0 0 1 3-3 6h-3v-6z" fill="#BC498D"/>
<path transform="translate(1238,691)" d="m0 0h6l-1 4-5 3z" fill="#B94A8C"/>
<path transform="translate(1123,678)" d="m0 0h7l-4 4-6 1z" fill="#B64D8C"/>
<path transform="translate(1692,505)" d="m0 0 4 2 3 4-1 3-5-3z" fill="#BD488D"/>
<path transform="translate(726,436)" d="m0 0h6l-1 5h-5z" fill="#B74B8C"/>
<path transform="translate(771,403)" d="m0 0h7v1h-6v5l-1 1h-5l2-4h2z" fill="#B74B8C"/>
<path transform="translate(787,391)" d="m0 0h3v5l-1 1h-5l1-4z" fill="#B64D8C"/>
<path transform="translate(1463,326)" d="m0 0 6 1 1 5-6-1z" fill="#B94A8C"/>
<path transform="translate(963,320)" d="m0 0h10l-4 3-5 2-3-1h2z" fill="#D758A1"/>
<path transform="translate(899,320)" d="m0 0 1 2-1 4h-9l1-2z" fill="#DB6CAC"/>
<path transform="translate(989,307)" d="m0 0h6v4l-7 2z" fill="#B64D8C"/>
<path transform="translate(1232,1728)" d="m0 0h6v1h-5l-1 4-5 1 2-5z" fill="#B64C8C"/>
<path transform="translate(253,1677)" d="m0 0h6l-1 5h-5z" fill="#B64C8C"/>
<path transform="translate(1173,1672)" d="m0 0 2 1-1 3-13 1 4-2z" fill="#D960A6"/>
<path transform="translate(285,1664)" d="m0 0h6l-1 4-6 2z" fill="#B64D8C"/>
<path transform="translate(382,1401)" d="m0 0 2 1 1 6h2v7h-2l-3-11z" fill="#D24496"/>
<path transform="translate(1507,1351)" d="m0 0h1l-1 8-5 5v-3z" fill="#D5529E"/>
<path transform="translate(1604,1057)" d="m0 0h4v4l-2 1-1 10h-1z" fill="#B64D8C"/>
<path transform="translate(731,1044)" d="m0 0 2 1-12 11-3-1z" fill="#DF7BB5"/>
<path transform="translate(893,1011)" d="m0 0h6l-1 4-1 1h-5z" fill="#BA4A8D"/>
<path transform="translate(1078,986)" d="m0 0h6l-1 4-5 2z" fill="#BB498D"/>
<path transform="translate(1610,954)" d="m0 0 5 4-2 1 1 4h-3l-1 3z" fill="#B64D8C"/>
<path transform="translate(912,941)" d="m0 0h7l-2 5h-5z" fill="#B64D8C"/>
<path transform="translate(592,890)" d="m0 0h6l-1 4-5 2z" fill="#B94A8D"/>
<path transform="translate(526,884)" d="m0 0h2v6h-6v-3z" fill="#B84B8C"/>
<path transform="translate(613,807)" d="m0 0h4v5l-6 1 1-5z" fill="#B64D8C"/>
<path transform="translate(1403,730)" d="m0 0 4 1h-2v5h-6l2-4z" fill="#B64D8C"/>
<path transform="translate(520,729)" d="m0 0 1 4-2 3-4-1 1-5z" fill="#B64C8C"/>
<path transform="translate(558,661)" d="m0 0h1v5l-2 3h-3l-1 2v-5z" fill="#BB498D"/>
<path transform="translate(1137,635)" d="m0 0h5v5h-6z" fill="#B64D8C"/>
<path transform="translate(629,563)" d="m0 0h1v5l-6 1v-5z" fill="#B74B8C"/>
<path transform="translate(614,545)" d="m0 0h3v5l-4 1-1 5h-1v-6z" fill="#BB498D"/>
<path transform="translate(1460,527)" d="m0 0h3v4h-10l1-2z" fill="#DF7BB5"/>
<path transform="translate(647,511)" d="m0 0 3 2-2 5h-4l1-5z" fill="#B94A8D"/>
<path transform="translate(1551,487)" d="m0 0h1v6h-6l1-4z" fill="#B64D8C"/>
<path transform="translate(1561,480)" d="m0 0 4 1-1 5h-5l1-5z" fill="#B64C8C"/>
<path transform="translate(746,1792)" d="m0 0h6l2 6-6-2-2-1z" fill="#B64D8C"/>
<path transform="translate(1129,1767)" d="m0 0h7l-4 5h-6l1-2h2z" fill="#BB4A8D"/>
<path transform="translate(680,1658)" d="m0 0 4 1 6 4v1h-8v-5z" fill="#BE5091"/>
<path transform="translate(1243,1633)" d="m0 0h2v5l-6 1v-4z" fill="#B64D8C"/>
<path transform="translate(1270,1614)" d="m0 0h1v5l-1 1h-5v-3z" fill="#CF5EA0"/>
<path transform="translate(389,1427)" d="m0 0h4v7l-4-1z" fill="#B64D8C"/>
<path transform="translate(1498,1370)" d="m0 0h3v6l-6 1 2-5z" fill="#B64D8C"/>
<path transform="translate(1645,1338)" d="m0 0h3l-1 6h-5l1-5z" fill="#B64D8C"/>
<path transform="translate(1543,1286)" d="m0 0 3 1-1 5-5 1v-5z" fill="#B94B8C"/>
<path transform="translate(730,1280)" d="m0 0h3l-1 6h-5v-4z" fill="#BC498D"/>
<path transform="translate(757,1255)" d="m0 0 2 1-1 5h-7l4-5z" fill="#DB68AA"/>
<path transform="translate(951,1197)" d="m0 0h5v4h-2v2l-4-1z" fill="#B94B8C"/>
<path transform="translate(948,1037)" d="m0 0h2v5l-6 2 1-5z" fill="#B94B8C"/>
<path transform="translate(752,1030)" d="m0 0h6v2h-2l-1 4h-3z" fill="#B64D8C"/>
<path transform="translate(881,1018)" d="m0 0h5v3l-4 3-3-1z" fill="#B94B8C"/>
<path transform="translate(437 1e3)" d="m0 0h1v8l-6 3 2-6z" fill="#D961A6"/>
<path transform="translate(522,980)" d="m0 0h5l-1 5-5 1z" fill="#BA4A8D"/>
<path transform="translate(1108,927)" d="m0 0 1 3-2 4-3 1v-7z" fill="#BA4A8D"/>
<path transform="translate(493,922)" d="m0 0 3 1-1 5h-5l1-5z" fill="#B64D8C"/>
<path transform="translate(1117,916)" d="m0 0h6v3l-4 2-4-1z" fill="#BC498D"/>
<path transform="translate(1194,896)" d="m0 0h6v3l-6 2h-5l4-2z" fill="#B64D8C"/>
<path transform="translate(1322,839)" d="m0 0h6l-1 4-5 1z" fill="#B94B8C"/>
<path transform="translate(1429,761)" d="m0 0h2l-2 4-5 3v-6z" fill="#BE488E"/>
<path transform="translate(512,692)" d="m0 0h3v6l-6 1 2-5z" fill="#B64D8C"/>
<path transform="translate(552,623)" d="m0 0h1v5l-4 4-4 6v-3l5-9z" fill="#E593C2"/>
<path transform="translate(1462,563)" d="m0 0h6v1h-5l-2 4h-4v-4z" fill="#B64D8C"/>
<path transform="translate(637,550)" d="m0 0h6l-3 6h-3z" fill="#B64D8C"/>
<path transform="translate(675,480)" d="m0 0h6l-3 3h-2v3h-5z" fill="#C2468F"/>
<path transform="translate(1501,314)" d="m0 0 6 1v4h-6z" fill="#B64D8C"/>
<path transform="translate(1071,1711)" d="m0 0h2v4h-10l1-2z" fill="#E080B8"/>
<path transform="translate(528,1664)" d="m0 0h6v6l-4-2z" fill="#B64D8C"/>
<path transform="translate(1400,1504)" d="m0 0h5l-1 6-2-1-1 1h-2v-5z" fill="#B84B8C"/>
<path transform="translate(1610,1395)" d="m0 0h5l-2 5-3 3z" fill="#D6549F"/>
<path transform="translate(1642,1344)" d="m0 0h5l-2 5-3 3z" fill="#D962A7"/>
<path transform="translate(785,1229)" d="m0 0h5l-1 5-5 1v-5z" fill="#B94B8C"/>
<path transform="translate(1583,1165)" d="m0 0h1v13h-3l1-7z" fill="#DE79B3"/>
<path transform="translate(772,1100)" d="m0 0h6l-5 6h-2v-5z" fill="#B64D8C"/>
<path transform="translate(854,1037)" d="m0 0h6l-3 6h-3z" fill="#BA4A8D"/>
<path transform="translate(1650,887)" d="m0 0 2 1-4 2v2l-7 4-3-1z" fill="#E080B8"/>
<path transform="translate(614,870)" d="m0 0h3l-1 4-2 2h-3l1-5z" fill="#BB4A8D"/>
<path transform="translate(579,832)" d="m0 0 1 2-1 5-6 2 1-4z" fill="#D266A5"/>
<path transform="translate(1366,813)" d="m0 0h6v3h-2v2h-4z" fill="#BE488E"/>
<path transform="translate(1314,801)" d="m0 0 2 1-1 4-9 1 4-4z" fill="#D6549F"/>
<path transform="translate(727,749)" d="m0 0h6l-2 3v2l-5 1v-5z" fill="#B64D8C"/>
<path transform="translate(763,737)" d="m0 0h2v5h-6v-4z" fill="#B64D8C"/>
<path transform="translate(534,650)" d="m0 0 1 3-1 6-5 2 2-6z" fill="#D962A7"/>
<path transform="translate(1451,532)" d="m0 0 2 1v3l-9 1v-2z" fill="#B64D8C"/>
<path transform="translate(1463,526)" d="m0 0h6l-1 5h-5z" fill="#BA4A8D"/>
<path transform="translate(1511,506)" d="m0 0h5l-3 1v4l-6 1 1-4z" fill="#B94B8C"/>
<path transform="translate(1923,475)" d="m0 0 4 2 3 3v6h-1l-1-5-5-2z" fill="#FEFEFE"/>
<path transform="translate(732,460)" d="m0 0h5l-5 5-6 4v-3h3l2-4z" fill="#CB62A0"/>
<path transform="translate(1885,428)" d="m0 0 2 4 2 7-1 4v-2h-2l-1-5z" fill="#FEFEFE"/>
<path transform="translate(774,400)" d="m0 0m-2 1 2 1-4 4h-2v2l-6 1 4-4z" fill="#E080B8"/>
<path transform="translate(792,386)" d="m0 0m-2 1 2 1-2 3-5 3-2 2-3-1 6-5z" fill="#E298C3"/>
<path transform="translate(1012,276)" d="m0 0h2v5h-6v-4z" fill="#B64D8C"/>
<path transform="translate(1411,270)" d="m0 0 6 1 7 3v1h-7v-2l-5-1z" fill="#E48FC0"/>
</svg>
